<?xml version="1.0" encoding="UTF-8" standalone="no"?>
<!DOCTYPE svg PUBLIC "-//W3C//DTD SVG 1.1//EN" "http://www.w3.org/Graphics/SVG/1.1/DTD/svg11.dtd">
<svg xmlns="http://www.w3.org/2000/svg" version="1.1" viewBox="0.00 0.00 240.00 240.00">
<g stroke-width="2.00" fill="none" stroke-linecap="butt">
<path stroke="#7cb5dd" vector-effect="non-scaling-stroke" d="
  M 120.14 216.98
  L 179.48 200.49
  A 0.87 0.86 86.8 0 0 180.09 199.80
  C 180.61 196.47 180.49 193.13 181.10 189.83
  C 181.57 187.29 181.64 183.66 181.80 182.07
  C 182.63 173.87 183.27 165.66 184.00 157.45
  Q 186.69 127.34 189.56 97.25
  Q 190.95 82.67 192.12 68.06
  C 192.26 66.24 192.76 63.94 192.82 61.84
  C 192.93 58.10 193.78 54.73 193.51 50.98
  C 193.46 50.39 193.78 49.66 194.10 49.23
  A 0.76 0.76 0.0 0 0 193.50 48.00
  L 45.22 48.01
  A 0.56 0.56 0.0 0 0 44.68 48.72
  C 45.53 51.69 44.95 54.28 45.65 57.15
  C 46.05 58.80 45.98 60.75 46.09 61.94
  Q 52.89 134.55 54.50 154.25
  C 55.20 162.85 56.19 171.44 56.84 180.04
  Q 57.15 184.06 57.58 188.06
  C 57.86 190.73 58.03 196.00 58.77 199.89
  Q 58.86 200.37 59.33 200.50
  L 118.61 216.98
  A 2.92 2.85 -44.3 0 0 120.14 216.98"
/>
<path stroke="#93c3e3" vector-effect="non-scaling-stroke" d="
  M 119.21 78.99
  L 72.77 79.07
  A 0.38 0.38 0.0 0 0 72.39 79.49
  L 74.16 97.16
  A 1.22 1.21 -2.9 0 0 75.37 98.25
  L 119.49 98.41"
/>
<path stroke="#56a6dd" vector-effect="non-scaling-stroke" d="
  M 119.49 98.41
  L 119.51 116.75"
/>
<path stroke="#93c3e3" vector-effect="non-scaling-stroke" d="
  M 119.51 116.75
  L 76.16 116.75
  Q 75.62 116.75 75.67 117.28
  L 77.16 134.73
  A 0.80 0.78 87.6 0 0 77.94 135.46
  L 119.58 135.47"
/>
<path stroke="#56a6dd" vector-effect="non-scaling-stroke" d="
  M 119.58 135.47
  L 119.40 164.61
  Q 119.39 164.86 119.24 165.06
  L 118.97 165.40"
/>
<path stroke="#93c3e3" vector-effect="non-scaling-stroke" d="
  M 118.97 165.40
  L 98.93 159.98
  Q 98.51 159.86 98.47 159.43
  L 97.51 145.66
  Q 97.45 144.87 96.66 144.88
  L 78.91 144.93
  A 0.62 0.61 87.4 0 0 78.30 145.60
  L 80.86 174.88
  A 0.34 0.33 5.1 0 0 81.11 175.17
  L 119.39 185.66"
/>
<path stroke="#56a6dd" vector-effect="non-scaling-stroke" d="
  M 119.39 185.66
  L 119.32 203.44
  A 0.51 0.50 82.5 0 0 119.95 203.93
  L 168.82 190.96
  A 0.28 0.27 -5.8 0 0 169.03 190.71
  L 180.20 60.46
  Q 180.25 59.92 179.71 59.92
  L 119.95 59.92
  Q 119.32 59.92 119.32 60.54
  L 119.21 78.99"
/>
<path stroke="#aecfe5" vector-effect="non-scaling-stroke" d="
  M 119.39 185.66
  L 120.45 185.30"
/>
<path stroke="#b8d9ef" vector-effect="non-scaling-stroke" d="
  M 120.45 185.30
  L 157.22 175.18
  Q 157.74 175.04 157.79 174.50
  L 166.17 79.34
  A 0.17 0.16 3.0 0 0 166.00 79.16
  L 120.48 79.23"
/>
<path stroke="#aecfe5" vector-effect="non-scaling-stroke" d="
  M 120.48 79.23
  L 119.21 78.99"
/>
<path stroke="#f5f5f5" vector-effect="non-scaling-stroke" d="
  M 120.45 185.30
  L 120.05 185.26
  Q 119.49 185.20 119.50 184.64
  Q 119.56 175.68 119.37 166.73
  Q 119.36 166.16 119.62 165.85
  Q 119.95 165.46 120.45 165.31"
/>
<path stroke="#b8d9ef" vector-effect="non-scaling-stroke" d="
  M 120.45 165.31
  L 139.42 160.02
  A 1.17 1.14 85.0 0 0 140.26 159.00
  L 142.25 135.72
  A 0.43 0.43 0.0 0 0 141.81 135.25
  L 120.71 135.38"
/>
<path stroke="#f5f5f5" vector-effect="non-scaling-stroke" d="
  M 120.71 135.38
  Q 119.47 135.28 119.46 134.50
  Q 119.35 126.00 119.30 117.50
  Q 119.30 117.17 119.47 117.05
  Q 119.65 116.91 119.97 116.86"
/>
<path stroke="#b8d9ef" vector-effect="non-scaling-stroke" d="
  M 119.97 116.86
  L 142.51 116.99
  A 1.30 1.29 -87.1 0 0 143.81 115.81
  L 145.43 98.73
  A 0.47 0.47 0.0 0 0 144.96 98.22
  L 121.44 98.18"
/>
<path stroke="#f5f5f5" vector-effect="non-scaling-stroke" d="
  M 120.48 79.23
  Q 119.29 79.52 119.31 79.99
  Q 119.58 87.75 119.43 95.50
  Q 119.37 98.24 121.44 98.18"
/>
<path stroke="#aecfe5" vector-effect="non-scaling-stroke" d="
  M 121.44 98.18
  L 119.49 98.41"
/>
<path stroke="#aecfe5" vector-effect="non-scaling-stroke" d="
  M 120.45 165.31
  L 118.97 165.40"
/>
<path stroke="#aecfe5" vector-effect="non-scaling-stroke" d="
  M 119.97 116.86
  Q 119.77 116.69 119.51 116.75"
/>
<path stroke="#aecfe5" vector-effect="non-scaling-stroke" d="
  M 120.71 135.38
  L 119.58 135.47"
/>
</g>
<path fill="#bcd0de" d="
  M 113.88 0.00
  L 125.24 0.00
  Q 163.20 2.10 191.88 23.87
  Q 235.75 57.18 240.00 113.87
  L 240.00 124.74
  Q 237.88 165.72 212.93 195.94
  Q 179.78 236.09 126.10 240.00
  L 115.24 240.00
  Q 56.95 236.28 23.07 190.69
  Q 2.13 162.52 0.00 125.57
  L 0.00 114.75
  C 3.78 56.01 45.78 8.82 104.52 1.17
  Q 109.19 0.56 113.88 0.00
  Z
  M 120.14 216.98
  L 179.48 200.49
  A 0.87 0.86 86.8 0 0 180.09 199.80
  C 180.61 196.47 180.49 193.13 181.10 189.83
  C 181.57 187.29 181.64 183.66 181.80 182.07
  C 182.63 173.87 183.27 165.66 184.00 157.45
  Q 186.69 127.34 189.56 97.25
  Q 190.95 82.67 192.12 68.06
  C 192.26 66.24 192.76 63.94 192.82 61.84
  C 192.93 58.10 193.78 54.73 193.51 50.98
  C 193.46 50.39 193.78 49.66 194.10 49.23
  A 0.76 0.76 0.0 0 0 193.50 48.00
  L 45.22 48.01
  A 0.56 0.56 0.0 0 0 44.68 48.72
  C 45.53 51.69 44.95 54.28 45.65 57.15
  C 46.05 58.80 45.98 60.75 46.09 61.94
  Q 52.89 134.55 54.50 154.25
  C 55.20 162.85 56.19 171.44 56.84 180.04
  Q 57.15 184.06 57.58 188.06
  C 57.86 190.73 58.03 196.00 58.77 199.89
  Q 58.86 200.37 59.33 200.50
  L 118.61 216.98
  A 2.92 2.85 -44.3 0 0 120.14 216.98
  Z"
/>
<path fill="#3b9adb" d="
  M 120.14 216.98
  A 2.92 2.85 -44.3 0 1 118.61 216.98
  L 59.33 200.50
  Q 58.86 200.37 58.77 199.89
  C 58.03 196.00 57.86 190.73 57.58 188.06
  Q 57.15 184.06 56.84 180.04
  C 56.19 171.44 55.20 162.85 54.50 154.25
  Q 52.89 134.55 46.09 61.94
  C 45.98 60.75 46.05 58.80 45.65 57.15
  C 44.95 54.28 45.53 51.69 44.68 48.72
  A 0.56 0.56 0.0 0 1 45.22 48.01
  L 193.50 48.00
  A 0.76 0.76 0.0 0 1 194.10 49.23
  C 193.78 49.66 193.46 50.39 193.51 50.98
  C 193.78 54.73 192.93 58.10 192.82 61.84
  C 192.76 63.94 192.26 66.24 192.12 68.06
  Q 190.95 82.67 189.56 97.25
  Q 186.69 127.34 184.00 157.45
  C 183.27 165.66 182.63 173.87 181.80 182.07
  C 181.64 183.66 181.57 187.29 181.10 189.83
  C 180.49 193.13 180.61 196.47 180.09 199.80
  A 0.87 0.86 86.8 0 1 179.48 200.49
  L 120.14 216.98
  Z
  M 119.21 78.99
  L 72.77 79.07
  A 0.38 0.38 0.0 0 0 72.39 79.49
  L 74.16 97.16
  A 1.22 1.21 -2.9 0 0 75.37 98.25
  L 119.49 98.41
  L 119.51 116.75
  L 76.16 116.75
  Q 75.62 116.75 75.67 117.28
  L 77.16 134.73
  A 0.80 0.78 87.6 0 0 77.94 135.46
  L 119.58 135.47
  L 119.40 164.61
  Q 119.39 164.86 119.24 165.06
  L 118.97 165.40
  L 98.93 159.98
  Q 98.51 159.86 98.47 159.43
  L 97.51 145.66
  Q 97.45 144.87 96.66 144.88
  L 78.91 144.93
  A 0.62 0.61 87.4 0 0 78.30 145.60
  L 80.86 174.88
  A 0.34 0.33 5.1 0 0 81.11 175.17
  L 119.39 185.66
  L 119.32 203.44
  A 0.51 0.50 82.5 0 0 119.95 203.93
  L 168.82 190.96
  A 0.28 0.27 -5.8 0 0 169.03 190.71
  L 180.20 60.46
  Q 180.25 59.92 179.71 59.92
  L 119.95 59.92
  Q 119.32 59.92 119.32 60.54
  L 119.21 78.99
  Z"
/>
<path fill="#71b2de" d="
  M 119.39 185.66
  L 120.45 185.30
  L 157.22 175.18
  Q 157.74 175.04 157.79 174.50
  L 166.17 79.34
  A 0.17 0.16 3.0 0 0 166.00 79.16
  L 120.48 79.23
  L 119.21 78.99
  L 119.32 60.54
  Q 119.32 59.92 119.95 59.92
  L 179.71 59.92
  Q 180.25 59.92 180.20 60.46
  L 169.03 190.71
  A 0.28 0.27 -5.8 0 1 168.82 190.96
  L 119.95 203.93
  A 0.51 0.50 82.5 0 1 119.32 203.44
  L 119.39 185.66
  Z"
/>
<path fill="#ebebeb" d="
  M 119.21 78.99
  L 120.48 79.23
  Q 119.29 79.52 119.31 79.99
  Q 119.58 87.75 119.43 95.50
  Q 119.37 98.24 121.44 98.18
  L 119.49 98.41
  L 75.37 98.25
  A 1.22 1.21 -2.9 0 1 74.16 97.16
  L 72.39 79.49
  A 0.38 0.38 0.0 0 1 72.77 79.07
  L 119.21 78.99
  Z"
/>
<path fill="#ffffff" d="
  M 120.45 185.30
  L 120.05 185.26
  Q 119.49 185.20 119.50 184.64
  Q 119.56 175.68 119.37 166.73
  Q 119.36 166.16 119.62 165.85
  Q 119.95 165.46 120.45 165.31
  L 139.42 160.02
  A 1.17 1.14 85.0 0 0 140.26 159.00
  L 142.25 135.72
  A 0.43 0.43 0.0 0 0 141.81 135.25
  L 120.71 135.38
  Q 119.47 135.28 119.46 134.50
  Q 119.35 126.00 119.30 117.50
  Q 119.30 117.17 119.47 117.05
  Q 119.65 116.91 119.97 116.86
  L 142.51 116.99
  A 1.30 1.29 -87.1 0 0 143.81 115.81
  L 145.43 98.73
  A 0.47 0.47 0.0 0 0 144.96 98.22
  L 121.44 98.18
  Q 119.37 98.24 119.43 95.50
  Q 119.58 87.75 119.31 79.99
  Q 119.29 79.52 120.48 79.23
  L 166.00 79.16
  A 0.17 0.16 3.0 0 1 166.17 79.34
  L 157.79 174.50
  Q 157.74 175.04 157.22 175.18
  L 120.45 185.30
  Z"
/>
<path fill="#71b2de" d="
  M 121.44 98.18
  L 144.96 98.22
  A 0.47 0.47 0.0 0 1 145.43 98.73
  L 143.81 115.81
  A 1.30 1.29 -87.1 0 1 142.51 116.99
  L 119.97 116.86
  Q 119.77 116.69 119.51 116.75
  L 119.49 98.41
  L 121.44 98.18
  Z"
/>
<path fill="#ebebeb" d="
  M 119.51 116.75
  Q 119.77 116.69 119.97 116.86
  Q 119.65 116.91 119.47 117.05
  Q 119.30 117.17 119.30 117.50
  Q 119.35 126.00 119.46 134.50
  Q 119.47 135.28 120.71 135.38
  L 119.58 135.47
  L 77.94 135.46
  A 0.80 0.78 87.6 0 1 77.16 134.73
  L 75.67 117.28
  Q 75.62 116.75 76.16 116.75
  L 119.51 116.75
  Z"
/>
<path fill="#71b2de" d="
  M 120.71 135.38
  L 141.81 135.25
  A 0.43 0.43 0.0 0 1 142.25 135.72
  L 140.26 159.00
  A 1.17 1.14 85.0 0 1 139.42 160.02
  L 120.45 165.31
  L 118.97 165.40
  L 119.24 165.06
  Q 119.39 164.86 119.40 164.61
  L 119.58 135.47
  L 120.71 135.38
  Z"
/>
<path fill="#ebebeb" d="
  M 118.97 165.40
  L 120.45 165.31
  Q 119.95 165.46 119.62 165.85
  Q 119.36 166.16 119.37 166.73
  Q 119.56 175.68 119.50 184.64
  Q 119.49 185.20 120.05 185.26
  L 120.45 185.30
  L 119.39 185.66
  L 81.11 175.17
  A 0.34 0.33 5.1 0 1 80.86 174.88
  L 78.30 145.60
  A 0.62 0.61 87.4 0 1 78.91 144.93
  L 96.66 144.88
  Q 97.45 144.87 97.51 145.66
  L 98.47 159.43
  Q 98.51 159.86 98.93 159.98
  L 118.97 165.40
  Z"
/>
</svg>
