<?xml version="1.0" encoding="UTF-8" standalone="no"?>
<!DOCTYPE svg PUBLIC "-//W3C//DTD SVG 1.1//EN" "http://www.w3.org/Graphics/SVG/1.1/DTD/svg11.dtd">
<svg xmlns="http://www.w3.org/2000/svg" version="1.1" viewBox="0.00 0.00 240.00 240.00">
<g stroke-width="2.00" fill="none" stroke-linecap="butt">
<path stroke="#707e80" vector-effect="non-scaling-stroke" d="
  M 55.17 52.82
  Q 57.67 58.44 63.62 60.62
  Q 64.16 60.82 64.07 61.39
  Q 63.81 63.11 63.04 67.50
  C 61.17 78.30 62.47 89.05 62.90 100.26
  Q 63.10 105.27 63.54 110.27
  Q 63.96 115.16 64.20 120.14
  Q 64.22 120.65 63.72 120.72
  C 59.09 121.31 55.11 121.94 51.79 125.75
  Q 49.28 128.64 51.52 131.13
  Q 51.87 131.51 51.99 132.02
  C 53.32 137.57 59.82 133.59 62.91 131.66
  Q 64.08 130.92 64.01 132.30
  L 62.90 155.54"
/>
<path stroke="#819094" vector-effect="non-scaling-stroke" d="
  M 62.90 155.54
  C 62.62 173.04 61.70 185.21 70.93 198.66
  C 72.20 200.50 73.96 202.03 75.57 203.64
  A 0.73 0.72 48.7 0 1 75.50 204.72
  Q 73.18 206.55 70.72 208.46
  C 67.28 211.13 64.69 217.59 69.86 220.01
  Q 70.32 220.22 70.66 220.61
  C 74.23 224.74 81.55 217.23 84.24 215.03
  C 86.03 213.56 88.54 212.78 91.00 213.45
  C 94.51 214.39 98.05 215.85 101.40 216.58
  C 111.47 218.78 119.89 218.74 132.71 218.40
  Q 133.62 218.38 134.87 218.03
  C 136.60 217.55 139.15 217.52 140.35 217.30
  Q 150.43 215.42 159.14 211.19
  A 1.94 1.93 56.3 0 1 161.42 211.65
  C 164.16 214.75 168.63 221.02 172.99 220.22
  Q 176.47 219.58 177.91 216.73
  C 180.58 211.44 174.49 206.20 171.15 203.28
  A 0.63 0.63 0.0 0 1 171.10 202.37
  Q 179.29 193.62 182.09 181.66"
/>
<path stroke="#707e80" vector-effect="non-scaling-stroke" d="
  M 182.09 181.66
  C 183.53 178.24 183.91 173.60 184.39 169.94
  Q 184.95 165.71 184.97 160.03
  Q 185.00 145.79 184.59 131.70
  A 0.40 0.40 0.0 0 1 185.25 131.39
  C 187.32 133.19 191.13 134.83 193.79 133.40
  A 1.42 1.42 0.0 0 0 194.49 132.52
  L 194.91 130.97
  Q 195.08 130.35 195.59 129.96
  C 198.25 127.93 194.49 123.72 192.59 122.55
  Q 191.16 121.66 188.23 120.93
  Q 185.80 120.33 183.66 119.82"
/>
<path stroke="#a5e9f2" vector-effect="non-scaling-stroke" d="
  M 183.66 119.82
  C 183.45 109.64 184.34 99.06 183.50 88.01"
/>
<path stroke="#8ba4a7" vector-effect="non-scaling-stroke" d="
  M 183.50 88.01
  Q 183.22 83.75 183.18 79.39
  C 183.17 77.49 182.53 75.66 182.40 73.67
  C 182.14 69.52 181.47 66.10 180.74 62.26
  C 180.53 61.19 179.75 60.47 179.96 59.20
  Q 180.04 58.70 180.50 58.48
  C 185.62 56.05 190.23 50.84 189.41 45.29
  C 188.23 37.38 180.44 30.02 172.00 32.03
  Q 170.59 32.37 166.03 34.27
  Q 165.56 34.47 165.13 34.17
  C 157.59 28.69 150.68 25.92 141.70 24.53
  C 136.29 23.69 130.47 24.12 124.79 24.24
  Q 124.71 24.25 117.23 24.05
  C 104.86 23.74 88.42 28.01 79.15 35.87
  A 2.29 2.27 -51.1 0 1 76.61 36.15
  C 65.12 30.07 51.92 39.94 55.17 52.82"
/>
<path stroke="#51929a" vector-effect="non-scaling-stroke" d="
  M 183.50 88.01
  L 183.33 115.32"
/>
<path stroke="#1c2728" vector-effect="non-scaling-stroke" d="
  M 183.33 115.32
  Q 182.63 117.34 182.67 119.77"
/>
<path stroke="#51929a" vector-effect="non-scaling-stroke" d="
  M 182.67 119.77
  C 181.98 98.56 183.03 77.86 178.09 57.05"
/>
<path stroke="#1c2728" vector-effect="non-scaling-stroke" d="
  M 178.09 57.05
  Q 179.22 56.44 179.09 56.06"
/>
<path stroke="#51929a" vector-effect="non-scaling-stroke" d="
  M 179.09 56.06
  Q 179.12 56.45 179.30 56.69
  Q 179.61 57.12 180.10 56.93
  C 196.75 50.50 183.24 25.75 167.69 35.26
  Q 167.24 35.54 167.52 35.99
  Q 168.08 36.91 169.03 37.70"
/>
<path stroke="#1c2728" vector-effect="non-scaling-stroke" d="
  M 169.03 37.70
  Q 167.82 37.76 167.91 38.45"
/>
<path stroke="#51929a" vector-effect="non-scaling-stroke" d="
  M 167.91 38.45
  C 159.20 29.89 147.46 25.44 135.25 25.02
  C 123.63 24.63 114.29 24.39 101.51 27.27
  C 87.56 30.41 75.96 37.39 69.28 50.04"
/>
<path stroke="#1c2728" vector-effect="non-scaling-stroke" d="
  M 69.28 50.04
  Q 68.90 47.87 70.75 46.48
  A 0.81 0.79 65.6 0 0 71.05 45.65
  C 70.58 43.71 66.81 44.07 65.20 43.97"
/>
<path stroke="#51929a" vector-effect="non-scaling-stroke" d="
  M 65.20 43.97
  Q 67.72 42.66 70.44 43.98
  Q 70.94 44.22 71.30 43.81
  L 76.24 38.18
  Q 76.64 37.73 76.10 37.45
  Q 69.79 34.18 64.00 36.87
  Q 54.62 41.22 56.09 52.03"
/>
<path stroke="#1c2728" vector-effect="non-scaling-stroke" d="
  M 56.09 52.03
  Q 55.90 52.21 55.66 52.08
  Q 55.39 51.94 55.31 52.24
  L 55.17 52.82"
/>
<path stroke="#121314" vector-effect="non-scaling-stroke" d="
  M 182.09 181.66
  Q 181.77 181.92 181.56 182.29
  Q 181.38 182.62 181.34 182.25
  L 181.23 181.15"
/>
<path stroke="#356c73" vector-effect="non-scaling-stroke" d="
  M 183.66 119.82
  L 183.33 115.32"
/>
<path stroke="#356c73" vector-effect="non-scaling-stroke" d="
  M 179.09 56.06
  L 176.65 49.39
  Q 176.44 48.80 176.75 48.27
  L 177.94 46.24
  A 1.26 1.24 -32.3 0 0 178.11 45.51
  Q 177.72 39.87 172.19 40.71
  Q 171.62 40.80 171.25 40.35
  L 169.03 37.70"
/>
<path stroke="#356c73" vector-effect="non-scaling-stroke" d="
  M 167.91 38.45
  Q 173.73 44.26 174.76 47.25
  Q 176.44 52.12 178.09 57.05"
/>
<path stroke="#356c73" vector-effect="non-scaling-stroke" d="
  M 182.67 119.77
  C 184.18 138.29 185.96 161.77 181.23 181.15"
/>
<path stroke="#477e87" vector-effect="non-scaling-stroke" d="
  M 181.23 181.15
  C 177.03 194.96 170.75 203.79 157.45 210.39
  C 143.01 217.57 127.02 218.13 111.26 217.06
  C 91.11 215.69 70.21 204.88 65.37 183.50
  C 63.15 173.70 63.74 164.71 63.62 155.20"
/>
<path stroke="#356c73" vector-effect="non-scaling-stroke" d="
  M 63.62 155.20
  Q 63.79 148.48 64.02 146.50
  Q 66.33 126.08 64.81 110.25
  C 63.03 91.75 61.27 73.89 66.68 55.75
  Q 67.45 53.17 69.28 50.04"
/>
<path stroke="#356c73" vector-effect="non-scaling-stroke" d="
  M 65.20 43.97
  Q 61.76 46.89 63.75 50.47
  Q 64.02 50.97 64.49 51.28
  L 66.07 52.31
  Q 66.69 52.72 66.46 53.42
  L 64.59 59.24
  Q 64.42 59.75 63.91 59.58
  Q 58.13 57.71 56.09 52.03"
/>
<path stroke="#121314" vector-effect="non-scaling-stroke" d="
  M 63.62 155.20
  L 63.40 156.63
  Q 63.33 157.09 63.11 156.67
  Q 62.90 156.27 62.90 155.54"
/>
<path stroke="#356c73" vector-effect="non-scaling-stroke" d="
  M 124.93 54.71
  C 129.01 77.52 168.71 72.15 162.31 46.42"
/>
<path stroke="#51929a" vector-effect="non-scaling-stroke" d="
  M 162.31 46.42
  C 156.63 24.74 121.97 32.36 124.93 54.71"
/>
<path stroke="#1c2728" vector-effect="non-scaling-stroke" d="
  M 162.31 46.42
  Q 162.13 46.61 161.90 46.65
  Q 161.55 46.70 161.48 47.04
  L 161.38 47.50"
/>
<path stroke="#9ba6a7" vector-effect="non-scaling-stroke" d="
  M 161.38 47.50
  C 155.39 26.68 124.07 33.64 125.97 54.47"
/>
<path stroke="#1c2728" vector-effect="non-scaling-stroke" d="
  M 125.97 54.47
  L 125.50 51.61
  Q 125.47 51.42 125.27 51.45
  L 125.26 51.46
  Q 125.09 51.48 125.09 51.68
  L 124.93 54.71"
/>
<path stroke="#808080" vector-effect="non-scaling-stroke" d="
  M 161.38 47.50
  C 167.39 70.19 129.95 76.49 125.97 54.47"
/>
<path stroke="#477e87" vector-effect="non-scaling-stroke" d="
  M 80.49 62.06
  Q 86.72 72.25 99.25 70.98
  C 114.53 69.44 122.55 53.13 111.88 41.04"
/>
<path stroke="#51929a" vector-effect="non-scaling-stroke" d="
  M 111.88 41.04
  C 104.70 33.45 92.53 34.11 84.68 39.92
  C 78.39 44.59 75.78 54.86 80.49 62.06"
/>
<path stroke="#2d393c" vector-effect="non-scaling-stroke" d="
  M 111.88 41.04
  Q 110.84 41.01 110.98 41.64"
/>
<path stroke="#9ba6a7" vector-effect="non-scaling-stroke" d="
  M 110.98 41.64
  C 104.49 36.18 94.91 35.64 87.91 39.72
  C 79.55 44.58 77.84 53.61 81.77 62.20"
/>
<path stroke="#2d393c" vector-effect="non-scaling-stroke" d="
  M 81.77 62.20
  Q 79.94 60.81 80.49 62.06"
/>
<path stroke="#919294" vector-effect="non-scaling-stroke" d="
  M 110.98 41.64
  C 121.29 53.24 113.16 69.38 98.02 70.04
  Q 87.26 70.51 81.77 62.20"
/>
<path stroke="#477e87" vector-effect="non-scaling-stroke" d="
  M 112.74 83.26
  Q 112.92 86.02 113.15 88.79
  C 113.50 93.01 117.31 96.27 120.75 92.49"
/>
<path stroke="#356c73" vector-effect="non-scaling-stroke" d="
  M 120.75 92.49
  Q 121.83 91.51 122.97 92.68
  C 125.81 95.56 130.95 94.18 130.69 89.74
  Q 130.51 86.84 130.43 83.87
  Q 130.41 83.30 130.97 83.40
  Q 135.22 84.14 137.32 80.98
  C 140.51 76.19 134.93 72.10 131.33 70.11
  Q 130.89 69.86 130.78 69.37
  Q 129.91 65.38 126.59 64.39
  C 121.70 62.94 116.11 64.01 114.13 69.55
  Q 113.96 70.02 113.50 70.20
  Q 107.60 72.50 107.98 78.42
  C 108.16 81.22 109.99 83.04 112.74 83.26"
/>
<path stroke="#121314" vector-effect="non-scaling-stroke" d="
  M 120.75 92.49
  Q 120.46 92.71 120.51 91.38"
/>
<path stroke="#808080" vector-effect="non-scaling-stroke" d="
  M 120.51 91.38
  Q 121.19 91.18 121.14 90.50
  Q 120.78 86.09 121.59 81.95
  A 0.62 0.62 0.0 0 0 120.79 81.24
  L 114.04 83.38"
/>
<path stroke="#121314" vector-effect="non-scaling-stroke" d="
  M 114.04 83.38
  Q 113.88 83.48 113.74 83.61
  Q 113.49 83.85 113.28 83.58
  Q 112.80 82.95 112.74 83.26"
/>
<path stroke="#919294" vector-effect="non-scaling-stroke" d="
  M 120.51 91.38
  C 115.11 97.35 113.55 86.82 114.04 83.38"
/>
<path stroke="#808080" vector-effect="non-scaling-stroke" d="
  M 134.5458 58.8589
  A 5.95 5.31 91.1 0 0 139.9690 53.0119
  A 5.95 5.31 91.1 0 0 134.7742 46.9611
  A 5.95 5.31 91.1 0 0 129.3510 52.8081
  A 5.95 5.31 91.1 0 0 134.5458 58.8589"
/>
<path stroke="#808080" vector-effect="non-scaling-stroke" d="
  M 83.89 50.59
  C 81.56 55.32 84.00 61.19 89.78 60.20"
/>
<path stroke="#b5ebf2" vector-effect="non-scaling-stroke" d="
  M 89.78 60.20
  Q 92.10 59.99 92.77 58.03"
/>
<path stroke="#808080" vector-effect="non-scaling-stroke" d="
  M 92.77 58.03
  Q 93.71 56.73 93.82 54.69"
/>
<path stroke="#b5ebf2" vector-effect="non-scaling-stroke" d="
  M 93.82 54.69
  Q 94.64 52.87 93.61 51.42
  Q 88.78 44.57 83.89 50.59"
/>
<path stroke="#356c73" vector-effect="non-scaling-stroke" d="
  M 93.82 54.69
  C 92.58 49.39 89.10 46.77 83.89 50.59"
/>
<path stroke="#356c73" vector-effect="non-scaling-stroke" d="
  M 92.77 58.03
  L 89.78 60.20"
/>
<path stroke="#7b6951" vector-effect="non-scaling-stroke" d="
  M 55.08 129.43
  Q 54.62 130.55 53.43 130.88
  A 0.61 0.60 -10.6 0 0 52.99 131.51
  C 53.33 137.00 61.93 131.08 63.68 130.07
  Q 64.09 129.84 64.11 129.37
  L 64.34 122.34
  Q 64.36 121.83 63.86 121.85
  C 59.35 122.02 52.72 123.80 51.45 128.24
  Q 51.07 129.58 52.14 130.06
  Q 52.55 130.25 52.95 130.02
  L 54.63 129.04
  A 0.31 0.31 0.0 0 1 55.08 129.43"
/>
<path stroke="#808080" vector-effect="non-scaling-stroke" d="
  M 138.47 54.17
  A 1.44 1.44 0.0 0 0 137.03 52.73
  A 1.44 1.44 0.0 0 0 135.59 54.17
  A 1.44 1.44 0.0 0 0 137.03 55.61
  A 1.44 1.44 0.0 0 0 138.47 54.17"
/>
<path stroke="#808080" vector-effect="non-scaling-stroke" d="
  M 90.6980 57.2553
  A 1.59 1.28 94.4 0 0 92.0962 55.7682
  A 1.59 1.28 94.4 0 0 90.9420 54.0847
  A 1.59 1.28 94.4 0 0 89.5438 55.5718
  A 1.59 1.28 94.4 0 0 90.6980 57.2553"
/>
<path stroke="#7b6951" vector-effect="non-scaling-stroke" d="
  M 119.16 80.71
  C 122.78 79.71 125.30 79.97 128.59 81.37
  C 131.87 82.77 134.50 83.63 136.54 80.36
  C 139.15 76.18 133.96 72.31 130.58 71.13
  Q 130.12 70.97 129.71 71.24
  C 125.75 73.88 118.57 75.12 114.71 71.40
  Q 114.34 71.04 113.85 71.21
  Q 108.44 73.13 109.00 78.43
  C 109.67 84.65 115.86 81.62 119.16 80.71"
/>
<path stroke="#808080" vector-effect="non-scaling-stroke" d="
  M 122.80 82.13
  C 122.68 84.82 121.63 89.94 123.67 92.04
  Q 125.01 93.42 126.24 93.29
  C 131.18 92.76 129.48 87.82 129.48 84.15
  Q 129.48 82.73 128.13 82.30
  L 124.31 81.08
  Q 122.86 80.62 122.80 82.13"
/>
<path stroke="#7b6951" vector-effect="non-scaling-stroke" d="
  M 192.66 128.45
  L 194.03 129.49
  Q 194.52 129.86 194.93 129.42
  C 195.55 128.77 195.66 127.87 195.24 127.02
  C 193.30 123.11 188.53 121.39 184.39 121.31
  Q 183.90 121.30 183.93 121.78
  L 184.43 129.55
  Q 184.46 130.05 184.91 130.27
  C 186.51 131.03 193.08 135.50 193.81 131.19
  Q 193.90 130.68 193.49 130.37
  Q 192.83 129.86 192.17 129.38
  Q 192.00 129.26 191.95 129.12
  Q 191.86 128.89 191.92 128.69
  Q 192.12 128.03 192.66 128.45"
/>
<path stroke="#8d7c65" vector-effect="non-scaling-stroke" d="
  M 172.50 211.79
  A 0.27 0.27 0.0 0 1 172.83 211.83
  Q 174.81 213.92 175.51 216.75
  A 0.47 0.47 0.0 0 0 176.36 216.90
  C 179.43 212.36 173.47 206.56 170.12 204.07
  Q 169.94 203.94 169.76 204.06
  L 161.79 209.81
  A 0.25 0.25 0.0 0 0 161.76 210.19
  Q 165.05 213.59 168.57 217.42
  Q 171.11 220.17 174.35 218.44
  A 0.62 0.61 -27.9 0 0 174.61 217.62
  L 172.11 212.54
  A 0.46 0.46 0.0 0 1 172.27 211.95
  L 172.50 211.79"
/>
<path stroke="#8d7c65" vector-effect="non-scaling-stroke" d="
  M 73.34 213.37
  A 0.27 0.26 -54.7 0 1 73.40 213.73
  C 72.31 215.34 68.78 219.31 72.21 220.69
  C 74.05 221.42 77.26 219.41 78.53 218.31
  Q 83.01 214.44 86.77 212.21
  Q 87.08 212.02 86.78 211.83
  L 77.17 205.61
  Q 76.75 205.34 76.32 205.61
  C 73.12 207.65 69.37 210.21 68.06 213.95
  Q 67.53 215.47 68.26 216.91
  L 68.51 217.42
  Q 69.06 218.49 69.70 217.47
  L 72.46 213.08
  Q 72.62 212.82 72.87 213.01
  L 73.34 213.37"
/>
</g>
<path fill="#dffbff" d="
  M 113.95 0.00
  L 125.23 0.00
  C 188.07 3.57 235.48 51.29 240.00 113.89
  L 240.00 124.74
  C 236.64 188.10 188.33 236.13 125.12 240.00
  L 115.26 240.00
  Q 76.99 238.05 48.12 216.13
  Q 3.56 182.27 0.00 124.66
  L 0.00 114.78
  C 3.85 52.13 51.21 4.12 113.95 0.00
  Z
  M 55.17 52.82
  Q 57.67 58.44 63.62 60.62
  Q 64.16 60.82 64.07 61.39
  Q 63.81 63.11 63.04 67.50
  C 61.17 78.30 62.47 89.05 62.90 100.26
  Q 63.10 105.27 63.54 110.27
  Q 63.96 115.16 64.20 120.14
  Q 64.22 120.65 63.72 120.72
  C 59.09 121.31 55.11 121.94 51.79 125.75
  Q 49.28 128.64 51.52 131.13
  Q 51.87 131.51 51.99 132.02
  C 53.32 137.57 59.82 133.59 62.91 131.66
  Q 64.08 130.92 64.01 132.30
  L 62.90 155.54
  C 62.62 173.04 61.70 185.21 70.93 198.66
  C 72.20 200.50 73.96 202.03 75.57 203.64
  A 0.73 0.72 48.7 0 1 75.50 204.72
  Q 73.18 206.55 70.72 208.46
  C 67.28 211.13 64.69 217.59 69.86 220.01
  Q 70.32 220.22 70.66 220.61
  C 74.23 224.74 81.55 217.23 84.24 215.03
  C 86.03 213.56 88.54 212.78 91.00 213.45
  C 94.51 214.39 98.05 215.85 101.40 216.58
  C 111.47 218.78 119.89 218.74 132.71 218.40
  Q 133.62 218.38 134.87 218.03
  C 136.60 217.55 139.15 217.52 140.35 217.30
  Q 150.43 215.42 159.14 211.19
  A 1.94 1.93 56.3 0 1 161.42 211.65
  C 164.16 214.75 168.63 221.02 172.99 220.22
  Q 176.47 219.58 177.91 216.73
  C 180.58 211.44 174.49 206.20 171.15 203.28
  A 0.63 0.63 0.0 0 1 171.10 202.37
  Q 179.29 193.62 182.09 181.66
  C 183.53 178.24 183.91 173.60 184.39 169.94
  Q 184.95 165.71 184.97 160.03
  Q 185.00 145.79 184.59 131.70
  A 0.40 0.40 0.0 0 1 185.25 131.39
  C 187.32 133.19 191.13 134.83 193.79 133.40
  A 1.42 1.42 0.0 0 0 194.49 132.52
  L 194.91 130.97
  Q 195.08 130.35 195.59 129.96
  C 198.25 127.93 194.49 123.72 192.59 122.55
  Q 191.16 121.66 188.23 120.93
  Q 185.80 120.33 183.66 119.82
  C 183.45 109.64 184.34 99.06 183.50 88.01
  Q 183.22 83.75 183.18 79.39
  C 183.17 77.49 182.53 75.66 182.40 73.67
  C 182.14 69.52 181.47 66.10 180.74 62.26
  C 180.53 61.19 179.75 60.47 179.96 59.20
  Q 180.04 58.70 180.50 58.48
  C 185.62 56.05 190.23 50.84 189.41 45.29
  C 188.23 37.38 180.44 30.02 172.00 32.03
  Q 170.59 32.37 166.03 34.27
  Q 165.56 34.47 165.13 34.17
  C 157.59 28.69 150.68 25.92 141.70 24.53
  C 136.29 23.69 130.47 24.12 124.79 24.24
  Q 124.71 24.25 117.23 24.05
  C 104.86 23.74 88.42 28.01 79.15 35.87
  A 2.29 2.27 -51.1 0 1 76.61 36.15
  C 65.12 30.07 51.92 39.94 55.17 52.82
  Z"
/>
<path fill="#374d4f" d="
  M 183.50 88.01
  L 183.33 115.32
  Q 182.63 117.34 182.67 119.77
  C 181.98 98.56 183.03 77.86 178.09 57.05
  Q 179.22 56.44 179.09 56.06
  Q 179.12 56.45 179.30 56.69
  Q 179.61 57.12 180.10 56.93
  C 196.75 50.50 183.24 25.75 167.69 35.26
  Q 167.24 35.54 167.52 35.99
  Q 168.08 36.91 169.03 37.70
  Q 167.82 37.76 167.91 38.45
  C 159.20 29.89 147.46 25.44 135.25 25.02
  C 123.63 24.63 114.29 24.39 101.51 27.27
  C 87.56 30.41 75.96 37.39 69.28 50.04
  Q 68.90 47.87 70.75 46.48
  A 0.81 0.79 65.6 0 0 71.05 45.65
  C 70.58 43.71 66.81 44.07 65.20 43.97
  Q 67.72 42.66 70.44 43.98
  Q 70.94 44.22 71.30 43.81
  L 76.24 38.18
  Q 76.64 37.73 76.10 37.45
  Q 69.79 34.18 64.00 36.87
  Q 54.62 41.22 56.09 52.03
  Q 55.90 52.21 55.66 52.08
  Q 55.39 51.94 55.31 52.24
  L 55.17 52.82
  C 51.92 39.94 65.12 30.07 76.61 36.15
  A 2.29 2.27 -51.1 0 0 79.15 35.87
  C 88.42 28.01 104.86 23.74 117.23 24.05
  Q 124.71 24.25 124.79 24.24
  C 130.47 24.12 136.29 23.69 141.70 24.53
  C 150.68 25.92 157.59 28.69 165.13 34.17
  Q 165.56 34.47 166.03 34.27
  Q 170.59 32.37 172.00 32.03
  C 180.44 30.02 188.23 37.38 189.41 45.29
  C 190.23 50.84 185.62 56.05 180.50 58.48
  Q 180.04 58.70 179.96 59.20
  C 179.75 60.47 180.53 61.19 180.74 62.26
  C 181.47 66.10 182.14 69.52 182.40 73.67
  C 182.53 75.66 183.17 77.49 183.18 79.39
  Q 183.22 83.75 183.50 88.01
  Z"
/>
<path fill="#6ad7e5" d="
  M 167.91 38.45
  Q 173.73 44.26 174.76 47.25
  Q 176.44 52.12 178.09 57.05
  C 183.03 77.86 181.98 98.56 182.67 119.77
  C 184.18 138.29 185.96 161.77 181.23 181.15
  C 177.03 194.96 170.75 203.79 157.45 210.39
  C 143.01 217.57 127.02 218.13 111.26 217.06
  C 91.11 215.69 70.21 204.88 65.37 183.50
  C 63.15 173.70 63.74 164.71 63.62 155.20
  Q 63.79 148.48 64.02 146.50
  Q 66.33 126.08 64.81 110.25
  C 63.03 91.75 61.27 73.89 66.68 55.75
  Q 67.45 53.17 69.28 50.04
  C 75.96 37.39 87.56 30.41 101.51 27.27
  C 114.29 24.39 123.63 24.63 135.25 25.02
  C 147.46 25.44 159.20 29.89 167.91 38.45
  Z
  M 124.93 54.71
  C 129.01 77.52 168.71 72.15 162.31 46.42
  C 156.63 24.74 121.97 32.36 124.93 54.71
  Z
  M 80.49 62.06
  Q 86.72 72.25 99.25 70.98
  C 114.53 69.44 122.55 53.13 111.88 41.04
  C 104.70 33.45 92.53 34.11 84.68 39.92
  C 78.39 44.59 75.78 54.86 80.49 62.06
  Z
  M 112.74 83.26
  Q 112.92 86.02 113.15 88.79
  C 113.50 93.01 117.31 96.27 120.75 92.49
  Q 121.83 91.51 122.97 92.68
  C 125.81 95.56 130.95 94.18 130.69 89.74
  Q 130.51 86.84 130.43 83.87
  Q 130.41 83.30 130.97 83.40
  Q 135.22 84.14 137.32 80.98
  C 140.51 76.19 134.93 72.10 131.33 70.11
  Q 130.89 69.86 130.78 69.37
  Q 129.91 65.38 126.59 64.39
  C 121.70 62.94 116.11 64.01 114.13 69.55
  Q 113.96 70.02 113.50 70.20
  Q 107.60 72.50 107.98 78.42
  C 108.16 81.22 109.99 83.04 112.74 83.26
  Z"
/>
<path fill="#6ad7e5" d="
  M 179.09 56.06
  L 176.65 49.39
  Q 176.44 48.80 176.75 48.27
  L 177.94 46.24
  A 1.26 1.24 -32.3 0 0 178.11 45.51
  Q 177.72 39.87 172.19 40.71
  Q 171.62 40.80 171.25 40.35
  L 169.03 37.70
  Q 168.08 36.91 167.52 35.99
  Q 167.24 35.54 167.69 35.26
  C 183.24 25.75 196.75 50.50 180.10 56.93
  Q 179.61 57.12 179.30 56.69
  Q 179.12 56.45 179.09 56.06
  Z"
/>
<path fill="#374d4f" d="
  M 162.31 46.42
  Q 162.13 46.61 161.90 46.65
  Q 161.55 46.70 161.48 47.04
  L 161.38 47.50
  C 155.39 26.68 124.07 33.64 125.97 54.47
  L 125.50 51.61
  Q 125.47 51.42 125.27 51.45
  L 125.26 51.46
  Q 125.09 51.48 125.09 51.68
  L 124.93 54.71
  C 121.97 32.36 156.63 24.74 162.31 46.42
  Z"
/>
<path fill="#ffffff" d="
  M 161.38 47.50
  C 167.39 70.19 129.95 76.49 125.97 54.47
  C 124.07 33.64 155.39 26.68 161.38 47.50
  Z
  M 134.5458 58.8589
  A 5.95 5.31 91.1 0 0 139.9690 53.0119
  A 5.95 5.31 91.1 0 0 134.7742 46.9611
  A 5.95 5.31 91.1 0 0 129.3510 52.8081
  A 5.95 5.31 91.1 0 0 134.5458 58.8589
  Z"
/>
<path fill="#374d4f" d="
  M 111.88 41.04
  Q 110.84 41.01 110.98 41.64
  C 104.49 36.18 94.91 35.64 87.91 39.72
  C 79.55 44.58 77.84 53.61 81.77 62.20
  Q 79.94 60.81 80.49 62.06
  C 75.78 54.86 78.39 44.59 84.68 39.92
  C 92.53 34.11 104.70 33.45 111.88 41.04
  Z"
/>
<path fill="#6ad7e5" d="
  M 65.20 43.97
  Q 61.76 46.89 63.75 50.47
  Q 64.02 50.97 64.49 51.28
  L 66.07 52.31
  Q 66.69 52.72 66.46 53.42
  L 64.59 59.24
  Q 64.42 59.75 63.91 59.58
  Q 58.13 57.71 56.09 52.03
  Q 54.62 41.22 64.00 36.87
  Q 69.79 34.18 76.10 37.45
  Q 76.64 37.73 76.24 38.18
  L 71.30 43.81
  Q 70.94 44.22 70.44 43.98
  Q 67.72 42.66 65.20 43.97
  Z"
/>
<path fill="#ffffff" d="
  M 110.98 41.64
  C 121.29 53.24 113.16 69.38 98.02 70.04
  Q 87.26 70.51 81.77 62.20
  C 77.84 53.61 79.55 44.58 87.91 39.72
  C 94.91 35.64 104.49 36.18 110.98 41.64
  Z
  M 83.89 50.59
  C 81.56 55.32 84.00 61.19 89.78 60.20
  Q 92.10 59.99 92.77 58.03
  Q 93.71 56.73 93.82 54.69
  Q 94.64 52.87 93.61 51.42
  Q 88.78 44.57 83.89 50.59
  Z"
/>
<path fill="#000000" d="
  M 169.03 37.70
  L 171.25 40.35
  Q 171.62 40.80 172.19 40.71
  Q 177.72 39.87 178.11 45.51
  A 1.26 1.24 -32.3 0 1 177.94 46.24
  L 176.75 48.27
  Q 176.44 48.80 176.65 49.39
  L 179.09 56.06
  Q 179.22 56.44 178.09 57.05
  Q 176.44 52.12 174.76 47.25
  Q 173.73 44.26 167.91 38.45
  Q 167.82 37.76 169.03 37.70
  Z"
/>
<path fill="#232528" d="
  M 111.88 41.04
  C 122.55 53.13 114.53 69.44 99.25 70.98
  Q 86.72 72.25 80.49 62.06
  Q 79.94 60.81 81.77 62.20
  Q 87.26 70.51 98.02 70.04
  C 113.16 69.38 121.29 53.24 110.98 41.64
  Q 110.84 41.01 111.88 41.04
  Z"
/>
<path fill="#000000" d="
  M 65.20 43.97
  C 66.81 44.07 70.58 43.71 71.05 45.65
  A 0.81 0.79 65.6 0 1 70.75 46.48
  Q 68.90 47.87 69.28 50.04
  Q 67.45 53.17 66.68 55.75
  C 61.27 73.89 63.03 91.75 64.81 110.25
  Q 66.33 126.08 64.02 146.50
  Q 63.79 148.48 63.62 155.20
  L 63.40 156.63
  Q 63.33 157.09 63.11 156.67
  Q 62.90 156.27 62.90 155.54
  L 64.01 132.30
  Q 64.08 130.92 62.91 131.66
  C 59.82 133.59 53.32 137.57 51.99 132.02
  Q 51.87 131.51 51.52 131.13
  Q 49.28 128.64 51.79 125.75
  C 55.11 121.94 59.09 121.31 63.72 120.72
  Q 64.22 120.65 64.20 120.14
  Q 63.96 115.16 63.54 110.27
  Q 63.10 105.27 62.90 100.26
  C 62.47 89.05 61.17 78.30 63.04 67.50
  Q 63.81 63.11 64.07 61.39
  Q 64.16 60.82 63.62 60.62
  Q 57.67 58.44 55.17 52.82
  L 55.31 52.24
  Q 55.39 51.94 55.66 52.08
  Q 55.90 52.21 56.09 52.03
  Q 58.13 57.71 63.91 59.58
  Q 64.42 59.75 64.59 59.24
  L 66.46 53.42
  Q 66.69 52.72 66.07 52.31
  L 64.49 51.28
  Q 64.02 50.97 63.75 50.47
  Q 61.76 46.89 65.20 43.97
  Z
  M 55.08 129.43
  Q 54.62 130.55 53.43 130.88
  A 0.61 0.60 -10.6 0 0 52.99 131.51
  C 53.33 137.00 61.93 131.08 63.68 130.07
  Q 64.09 129.84 64.11 129.37
  L 64.34 122.34
  Q 64.36 121.83 63.86 121.85
  C 59.35 122.02 52.72 123.80 51.45 128.24
  Q 51.07 129.58 52.14 130.06
  Q 52.55 130.25 52.95 130.02
  L 54.63 129.04
  A 0.31 0.31 0.0 0 1 55.08 129.43
  Z"
/>
<path fill="#000000" d="
  M 162.31 46.42
  C 168.71 72.15 129.01 77.52 124.93 54.71
  L 125.09 51.68
  Q 125.09 51.48 125.26 51.46
  L 125.27 51.45
  Q 125.47 51.42 125.50 51.61
  L 125.97 54.47
  C 129.95 76.49 167.39 70.19 161.38 47.50
  L 161.48 47.04
  Q 161.55 46.70 161.90 46.65
  Q 162.13 46.61 162.31 46.42
  Z"
/>
<path fill="#000000" d="
  M 134.5458 58.8589
  A 5.95 5.31 91.1 0 1 129.3510 52.8081
  A 5.95 5.31 91.1 0 1 134.7742 46.9611
  A 5.95 5.31 91.1 0 1 139.9690 53.0119
  A 5.95 5.31 91.1 0 1 134.5458 58.8589
  Z
  M 138.47 54.17
  A 1.44 1.44 0.0 0 0 137.03 52.73
  A 1.44 1.44 0.0 0 0 135.59 54.17
  A 1.44 1.44 0.0 0 0 137.03 55.61
  A 1.44 1.44 0.0 0 0 138.47 54.17
  Z"
/>
<path fill="#6ad7e5" d="
  M 93.82 54.69
  C 92.58 49.39 89.10 46.77 83.89 50.59
  Q 88.78 44.57 93.61 51.42
  Q 94.64 52.87 93.82 54.69
  Z"
/>
<path fill="#000000" d="
  M 93.82 54.69
  Q 93.71 56.73 92.77 58.03
  L 89.78 60.20
  C 84.00 61.19 81.56 55.32 83.89 50.59
  C 89.10 46.77 92.58 49.39 93.82 54.69
  Z
  M 90.6980 57.2553
  A 1.59 1.28 94.4 0 0 92.0962 55.7682
  A 1.59 1.28 94.4 0 0 90.9420 54.0847
  A 1.59 1.28 94.4 0 0 89.5438 55.5718
  A 1.59 1.28 94.4 0 0 90.6980 57.2553
  Z"
/>
<circle fill="#ffffff" cx="137.03" cy="54.17" r="1.44"/>
<ellipse fill="#ffffff" cx="0.00" cy="0.00" transform="translate(90.82,55.67) rotate(94.4)" rx="1.59" ry="1.28"/>
<path fill="#6ad7e5" d="
  M 92.77 58.03
  Q 92.10 59.99 89.78 60.20
  L 92.77 58.03
  Z"
/>
<path fill="#000000" d="
  M 120.75 92.49
  Q 120.46 92.71 120.51 91.38
  Q 121.19 91.18 121.14 90.50
  Q 120.78 86.09 121.59 81.95
  A 0.62 0.62 0.0 0 0 120.79 81.24
  L 114.04 83.38
  Q 113.88 83.48 113.74 83.61
  Q 113.49 83.85 113.28 83.58
  Q 112.80 82.95 112.74 83.26
  C 109.99 83.04 108.16 81.22 107.98 78.42
  Q 107.60 72.50 113.50 70.20
  Q 113.96 70.02 114.13 69.55
  C 116.11 64.01 121.70 62.94 126.59 64.39
  Q 129.91 65.38 130.78 69.37
  Q 130.89 69.86 131.33 70.11
  C 134.93 72.10 140.51 76.19 137.32 80.98
  Q 135.22 84.14 130.97 83.40
  Q 130.41 83.30 130.43 83.87
  Q 130.51 86.84 130.69 89.74
  C 130.95 94.18 125.81 95.56 122.97 92.68
  Q 121.83 91.51 120.75 92.49
  Z
  M 119.16 80.71
  C 122.78 79.71 125.30 79.97 128.59 81.37
  C 131.87 82.77 134.50 83.63 136.54 80.36
  C 139.15 76.18 133.96 72.31 130.58 71.13
  Q 130.12 70.97 129.71 71.24
  C 125.75 73.88 118.57 75.12 114.71 71.40
  Q 114.34 71.04 113.85 71.21
  Q 108.44 73.13 109.00 78.43
  C 109.67 84.65 115.86 81.62 119.16 80.71
  Z
  M 122.80 82.13
  C 122.68 84.82 121.63 89.94 123.67 92.04
  Q 125.01 93.42 126.24 93.29
  C 131.18 92.76 129.48 87.82 129.48 84.15
  Q 129.48 82.73 128.13 82.30
  L 124.31 81.08
  Q 122.86 80.62 122.80 82.13
  Z"
/>
<path fill="#f6d2a2" d="
  M 119.16 80.71
  C 115.86 81.62 109.67 84.65 109.00 78.43
  Q 108.44 73.13 113.85 71.21
  Q 114.34 71.04 114.71 71.40
  C 118.57 75.12 125.75 73.88 129.71 71.24
  Q 130.12 70.97 130.58 71.13
  C 133.96 72.31 139.15 76.18 136.54 80.36
  C 134.50 83.63 131.87 82.77 128.59 81.37
  C 125.30 79.97 122.78 79.71 119.16 80.71
  Z"
/>
<path fill="#ffffff" d="
  M 123.67 92.04
  C 121.63 89.94 122.68 84.82 122.80 82.13
  Q 122.86 80.62 124.31 81.08
  L 128.13 82.30
  Q 129.48 82.73 129.48 84.15
  C 129.48 87.82 131.18 92.76 126.24 93.29
  Q 125.01 93.42 123.67 92.04
  Z"
/>
<path fill="#ffffff" d="
  M 120.51 91.38
  C 115.11 97.35 113.55 86.82 114.04 83.38
  L 120.79 81.24
  A 0.62 0.62 0.0 0 1 121.59 81.95
  Q 120.78 86.09 121.14 90.50
  Q 121.19 91.18 120.51 91.38
  Z"
/>
<path fill="#232528" d="
  M 112.74 83.26
  Q 112.80 82.95 113.28 83.58
  Q 113.49 83.85 113.74 83.61
  Q 113.88 83.48 114.04 83.38
  C 113.55 86.82 115.11 97.35 120.51 91.38
  Q 120.46 92.71 120.75 92.49
  C 117.31 96.27 113.50 93.01 113.15 88.79
  Q 112.92 86.02 112.74 83.26
  Z"
/>
<path fill="#6ad7e5" d="
  M 183.50 88.01
  C 184.34 99.06 183.45 109.64 183.66 119.82
  L 183.33 115.32
  L 183.50 88.01
  Z"
/>
<path fill="#000000" d="
  M 183.33 115.32
  L 183.66 119.82
  Q 185.80 120.33 188.23 120.93
  Q 191.16 121.66 192.59 122.55
  C 194.49 123.72 198.25 127.93 195.59 129.96
  Q 195.08 130.35 194.91 130.97
  L 194.49 132.52
  A 1.42 1.42 0.0 0 1 193.79 133.40
  C 191.13 134.83 187.32 133.19 185.25 131.39
  A 0.40 0.40 0.0 0 0 184.59 131.70
  Q 185.00 145.79 184.97 160.03
  Q 184.95 165.71 184.39 169.94
  C 183.91 173.60 183.53 178.24 182.09 181.66
  Q 181.77 181.92 181.56 182.29
  Q 181.38 182.62 181.34 182.25
  L 181.23 181.15
  C 185.96 161.77 184.18 138.29 182.67 119.77
  Q 182.63 117.34 183.33 115.32
  Z
  M 192.66 128.45
  L 194.03 129.49
  Q 194.52 129.86 194.93 129.42
  C 195.55 128.77 195.66 127.87 195.24 127.02
  C 193.30 123.11 188.53 121.39 184.39 121.31
  Q 183.90 121.30 183.93 121.78
  L 184.43 129.55
  Q 184.46 130.05 184.91 130.27
  C 186.51 131.03 193.08 135.50 193.81 131.19
  Q 193.90 130.68 193.49 130.37
  Q 192.83 129.86 192.17 129.38
  Q 192.00 129.26 191.95 129.12
  Q 191.86 128.89 191.92 128.69
  Q 192.12 128.03 192.66 128.45
  Z"
/>
<path fill="#f6d2a2" d="
  M 191.92 128.69
  Q 191.86 128.89 191.95 129.12
  Q 192.00 129.26 192.17 129.38
  Q 192.83 129.86 193.49 130.37
  Q 193.90 130.68 193.81 131.19
  C 193.08 135.50 186.51 131.03 184.91 130.27
  Q 184.46 130.05 184.43 129.55
  L 183.93 121.78
  Q 183.90 121.30 184.39 121.31
  C 188.53 121.39 193.30 123.11 195.24 127.02
  C 195.66 127.87 195.55 128.77 194.93 129.42
  Q 194.52 129.86 194.03 129.49
  L 192.66 128.45
  Q 192.12 128.03 191.92 128.69
  Z"
/>
<path fill="#f6d2a2" d="
  M 54.63 129.04
  L 52.95 130.02
  Q 52.55 130.25 52.14 130.06
  Q 51.07 129.58 51.45 128.24
  C 52.72 123.80 59.35 122.02 63.86 121.85
  Q 64.36 121.83 64.34 122.34
  L 64.11 129.37
  Q 64.09 129.84 63.68 130.07
  C 61.93 131.08 53.33 137.00 52.99 131.51
  A 0.61 0.60 -10.6 0 1 53.43 130.88
  Q 54.62 130.55 55.08 129.43
  A 0.31 0.31 0.0 0 0 54.63 129.04
  Z"
/>
<path fill="#232528" d="
  M 63.62 155.20
  C 63.74 164.71 63.15 173.70 65.37 183.50
  C 70.21 204.88 91.11 215.69 111.26 217.06
  C 127.02 218.13 143.01 217.57 157.45 210.39
  C 170.75 203.79 177.03 194.96 181.23 181.15
  L 181.34 182.25
  Q 181.38 182.62 181.56 182.29
  Q 181.77 181.92 182.09 181.66
  Q 179.29 193.62 171.10 202.37
  A 0.63 0.63 0.0 0 0 171.15 203.28
  C 174.49 206.20 180.58 211.44 177.91 216.73
  Q 176.47 219.58 172.99 220.22
  C 168.63 221.02 164.16 214.75 161.42 211.65
  A 1.94 1.93 56.3 0 0 159.14 211.19
  Q 150.43 215.42 140.35 217.30
  C 139.15 217.52 136.60 217.55 134.87 218.03
  Q 133.62 218.38 132.71 218.40
  C 119.89 218.74 111.47 218.78 101.40 216.58
  C 98.05 215.85 94.51 214.39 91.00 213.45
  C 88.54 212.78 86.03 213.56 84.24 215.03
  C 81.55 217.23 74.23 224.74 70.66 220.61
  Q 70.32 220.22 69.86 220.01
  C 64.69 217.59 67.28 211.13 70.72 208.46
  Q 73.18 206.55 75.50 204.72
  A 0.73 0.72 48.7 0 0 75.57 203.64
  C 73.96 202.03 72.20 200.50 70.93 198.66
  C 61.70 185.21 62.62 173.04 62.90 155.54
  Q 62.90 156.27 63.11 156.67
  Q 63.33 157.09 63.40 156.63
  L 63.62 155.20
  Z
  M 172.50 211.79
  A 0.27 0.27 0.0 0 1 172.83 211.83
  Q 174.81 213.92 175.51 216.75
  A 0.47 0.47 0.0 0 0 176.36 216.90
  C 179.43 212.36 173.47 206.56 170.12 204.07
  Q 169.94 203.94 169.76 204.06
  L 161.79 209.81
  A 0.25 0.25 0.0 0 0 161.76 210.19
  Q 165.05 213.59 168.57 217.42
  Q 171.11 220.17 174.35 218.44
  A 0.62 0.61 -27.9 0 0 174.61 217.62
  L 172.11 212.54
  A 0.46 0.46 0.0 0 1 172.27 211.95
  L 172.50 211.79
  Z
  M 73.34 213.37
  A 0.27 0.26 -54.7 0 1 73.40 213.73
  C 72.31 215.34 68.78 219.31 72.21 220.69
  C 74.05 221.42 77.26 219.41 78.53 218.31
  Q 83.01 214.44 86.77 212.21
  Q 87.08 212.02 86.78 211.83
  L 77.17 205.61
  Q 76.75 205.34 76.32 205.61
  C 73.12 207.65 69.37 210.21 68.06 213.95
  Q 67.53 215.47 68.26 216.91
  L 68.51 217.42
  Q 69.06 218.49 69.70 217.47
  L 72.46 213.08
  Q 72.62 212.82 72.87 213.01
  L 73.34 213.37
  Z"
/>
<path fill="#f6d2a2" d="
  M 172.50 211.79
  L 172.27 211.95
  A 0.46 0.46 0.0 0 0 172.11 212.54
  L 174.61 217.62
  A 0.62 0.61 -27.9 0 1 174.35 218.44
  Q 171.11 220.17 168.57 217.42
  Q 165.05 213.59 161.76 210.19
  A 0.25 0.25 0.0 0 1 161.79 209.81
  L 169.76 204.06
  Q 169.94 203.94 170.12 204.07
  C 173.47 206.56 179.43 212.36 176.36 216.90
  A 0.47 0.47 0.0 0 1 175.51 216.75
  Q 174.81 213.92 172.83 211.83
  A 0.27 0.27 0.0 0 0 172.50 211.79
  Z"
/>
<path fill="#f6d2a2" d="
  M 72.46 213.08
  L 69.70 217.47
  Q 69.06 218.49 68.51 217.42
  L 68.26 216.91
  Q 67.53 215.47 68.06 213.95
  C 69.37 210.21 73.12 207.65 76.32 205.61
  Q 76.75 205.34 77.17 205.61
  L 86.78 211.83
  Q 87.08 212.02 86.77 212.21
  Q 83.01 214.44 78.53 218.31
  C 77.26 219.41 74.05 221.42 72.21 220.69
  C 68.78 219.31 72.31 215.34 73.40 213.73
  A 0.27 0.26 -54.7 0 0 73.34 213.37
  L 72.87 213.01
  Q 72.62 212.82 72.46 213.08
  Z"
/>
</svg>
