<?xml version="1.0" encoding="UTF-8" standalone="no"?>
<!DOCTYPE svg PUBLIC "-//W3C//DTD SVG 1.1//EN" "http://www.w3.org/Graphics/SVG/1.1/DTD/svg11.dtd">
<svg xmlns="http://www.w3.org/2000/svg" version="1.1" viewBox="0.00 0.00 240.00 240.00">
<g stroke-width="2.00" fill="none" stroke-linecap="butt">
<path stroke="#f8a07d" vector-effect="non-scaling-stroke" d="
  M 70.78 208.05
  Q 72.49 209.03 74.45 208.97"
/>
<path stroke="#f2947b" vector-effect="non-scaling-stroke" d="
  M 74.45 208.97
  Q 95.20 214.78 116.00 220.49
  C 117.82 220.99 120.82 221.33 122.25 220.93
  Q 152.63 212.52 182.83 204.29
  Q 183.36 204.15 183.40 203.60
  L 197.42 46.50
  Q 197.49 45.77 196.75 45.77
  L 43.25 45.77
  Q 42.51 45.77 42.57 46.51
  L 56.56 203.46
  Q 56.63 204.26 57.41 204.47
  L 70.78 208.05"
/>
<path stroke="#eb5b28" vector-effect="non-scaling-stroke" d="
  M 74.45 208.97
  Q 72.78 207.82 70.78 208.05"
/>
<path stroke="#e89d89" vector-effect="non-scaling-stroke" d="
  M 119.22 78.14
  L 72.03 78.01
  Q 71.23 78.01 71.30 78.80
  L 75.93 130.29"
/>
<path stroke="#eb5b28" vector-effect="non-scaling-stroke" d="
  M 75.93 130.29
  L 76.30 136.66"
/>
<path stroke="#e89d89" vector-effect="non-scaling-stroke" d="
  M 76.30 136.66
  L 119.78 136.81"
/>
<path stroke="#eb5b28" vector-effect="non-scaling-stroke" d="
  M 119.78 136.81
  Q 120.19 150.61 120.09 164.50
  Q 120.08 165.69 120.55 166.78
  Q 120.75 167.25 120.30 167.49
  L 120.02 167.65"
/>
<path stroke="#e89d89" vector-effect="non-scaling-stroke" d="
  M 120.02 167.65
  L 98.74 162.25
  Q 98.33 162.15 98.29 161.73
  L 96.92 147.22
  Q 96.86 146.58 96.22 146.58
  L 78.02 146.54
  Q 77.33 146.53 77.39 147.23
  L 80.04 176.66
  Q 80.08 177.15 80.55 177.28
  L 120.05 188.22"
/>
<path stroke="#eb5b28" vector-effect="non-scaling-stroke" d="
  M 120.05 188.22
  L 120.01 207.83
  Q 120.01 208.34 120.50 208.20
  L 170.78 194.25
  Q 171.37 194.08 171.43 193.47
  L 183.41 59.21
  A 0.45 0.44 2.3 0 0 182.96 58.73
  L 120.48 58.75
  A 0.43 0.42 -0.0 0 0 120.05 59.17
  Q 119.88 68.16 120.14 77.25
  Q 120.16 78.01 119.22 78.14"
/>
<path stroke="#eea98b" vector-effect="non-scaling-stroke" d="
  M 120.05 188.22
  Q 118.62 188.12 121.00 187.88"
/>
<path stroke="#f8b395" vector-effect="non-scaling-stroke" d="
  M 121.00 187.88
  L 135.68 183.82"
/>
<path stroke="#f8a07d" vector-effect="non-scaling-stroke" d="
  M 135.68 183.82
  Q 138.21 183.63 140.24 182.56"
/>
<path stroke="#f8b395" vector-effect="non-scaling-stroke" d="
  M 140.24 182.56
  L 159.32 177.28
  Q 159.74 177.17 159.78 176.73
  L 165.06 117.98
  A 0.46 0.45 2.8 0 0 164.60 117.48
  L 120.25 117.48"
/>
<path stroke="#eb5b28" vector-effect="non-scaling-stroke" d="
  M 120.25 117.48
  Q 119.80 108.29 120.15 99.26
  Q 120.19 98.40 119.48 97.56"
/>
<path stroke="#eea98b" vector-effect="non-scaling-stroke" d="
  M 119.48 97.56
  L 119.93 97.49"
/>
<path stroke="#f8b395" vector-effect="non-scaling-stroke" d="
  M 119.93 97.49
  L 166.43 97.50
  Q 166.93 97.50 166.98 97.00
  L 168.58 78.51
  A 0.27 0.27 0.0 0 0 168.31 78.22
  L 119.93 78.23"
/>
<path stroke="#eea98b" vector-effect="non-scaling-stroke" d="
  M 119.93 78.23
  L 119.22 78.14"
/>
<path stroke="#f5f5f5" vector-effect="non-scaling-stroke" d="
  M 119.93 78.23
  L 119.93 97.49"
/>
<path stroke="#e89d89" vector-effect="non-scaling-stroke" d="
  M 119.48 97.56
  L 92.99 97.55
  Q 92.50 97.55 92.54 98.04
  L 94.17 116.96
  Q 94.22 117.51 94.76 117.51
  L 119.86 117.51"
/>
<path stroke="#f5f5f5" vector-effect="non-scaling-stroke" d="
  M 119.86 117.51
  L 119.97 134.96
  Q 119.98 136.62 121.64 136.62
  L 141.04 136.65"
/>
<path stroke="#eea98b" vector-effect="non-scaling-stroke" d="
  M 141.04 136.65
  L 119.78 136.81"
/>
<path stroke="#eea98b" vector-effect="non-scaling-stroke" d="
  M 76.30 136.66
  L 75.93 130.29"
/>
<path stroke="#f2a793" vector-effect="non-scaling-stroke" d="
  M 120.25 117.48
  Q 120.06 117.50 119.86 117.51"
/>
<path stroke="#ffece7" vector-effect="non-scaling-stroke" d="
  M 140.24 182.56
  Q 138.27 182.16 135.68 183.82"
/>
<path stroke="#f5f5f5" vector-effect="non-scaling-stroke" d="
  M 121.00 187.88
  Q 119.97 187.70 119.97 187.00
  Q 119.98 178.13 119.98 169.25
  Q 119.98 168.85 120.48 167.78"
/>
<path stroke="#f8b395" vector-effect="non-scaling-stroke" d="
  M 120.48 167.78
  L 140.51 162.39
  A 1.57 1.56 85.2 0 0 141.66 161.02
  L 143.86 137.48
  Q 143.91 136.91 143.34 136.86
  L 141.04 136.65"
/>
<path stroke="#eea98b" vector-effect="non-scaling-stroke" d="
  M 120.48 167.78
  Q 120.25 167.78 120.02 167.65"
/>
</g>
<path fill="#ffd9cf" d="
  M 113.93 0.00
  L 125.23 0.00
  C 188.00 3.63 235.61 51.29 240.00 113.91
  L 240.00 124.74
  C 236.72 187.79 188.89 235.47 126.11 240.00
  L 114.77 240.00
  Q 75.74 237.81 46.56 214.93
  Q 3.88 181.47 0.00 125.63
  L 0.00 114.76
  C 3.93 52.10 51.15 4.12 113.93 0.00
  Z
  M 70.78 208.05
  Q 72.49 209.03 74.45 208.97
  Q 95.20 214.78 116.00 220.49
  C 117.82 220.99 120.82 221.33 122.25 220.93
  Q 152.63 212.52 182.83 204.29
  Q 183.36 204.15 183.40 203.60
  L 197.42 46.50
  Q 197.49 45.77 196.75 45.77
  L 43.25 45.77
  Q 42.51 45.77 42.57 46.51
  L 56.56 203.46
  Q 56.63 204.26 57.41 204.47
  L 70.78 208.05
  Z"
/>
<path fill="#e44f26" d="
  M 74.45 208.97
  Q 72.78 207.82 70.78 208.05
  L 57.41 204.47
  Q 56.63 204.26 56.56 203.46
  L 42.57 46.51
  Q 42.51 45.77 43.25 45.77
  L 196.75 45.77
  Q 197.49 45.77 197.42 46.50
  L 183.40 203.60
  Q 183.36 204.15 182.83 204.29
  Q 152.63 212.52 122.25 220.93
  C 120.82 221.33 117.82 220.99 116.00 220.49
  Q 95.20 214.78 74.45 208.97
  Z
  M 119.22 78.14
  L 72.03 78.01
  Q 71.23 78.01 71.30 78.80
  L 75.93 130.29
  L 76.30 136.66
  L 119.78 136.81
  Q 120.19 150.61 120.09 164.50
  Q 120.08 165.69 120.55 166.78
  Q 120.75 167.25 120.30 167.49
  L 120.02 167.65
  L 98.74 162.25
  Q 98.33 162.15 98.29 161.73
  L 96.92 147.22
  Q 96.86 146.58 96.22 146.58
  L 78.02 146.54
  Q 77.33 146.53 77.39 147.23
  L 80.04 176.66
  Q 80.08 177.15 80.55 177.28
  L 120.05 188.22
  L 120.01 207.83
  Q 120.01 208.34 120.50 208.20
  L 170.78 194.25
  Q 171.37 194.08 171.43 193.47
  L 183.41 59.21
  A 0.45 0.44 2.3 0 0 182.96 58.73
  L 120.48 58.75
  A 0.43 0.42 -0.0 0 0 120.05 59.17
  Q 119.88 68.16 120.14 77.25
  Q 120.16 78.01 119.22 78.14
  Z"
/>
<path fill="#f1662a" d="
  M 120.05 188.22
  Q 118.62 188.12 121.00 187.88
  L 135.68 183.82
  Q 138.21 183.63 140.24 182.56
  L 159.32 177.28
  Q 159.74 177.17 159.78 176.73
  L 165.06 117.98
  A 0.46 0.45 2.8 0 0 164.60 117.48
  L 120.25 117.48
  Q 119.80 108.29 120.15 99.26
  Q 120.19 98.40 119.48 97.56
  L 119.93 97.49
  L 166.43 97.50
  Q 166.93 97.50 166.98 97.00
  L 168.58 78.51
  A 0.27 0.27 0.0 0 0 168.31 78.22
  L 119.93 78.23
  L 119.22 78.14
  Q 120.16 78.01 120.14 77.25
  Q 119.88 68.16 120.05 59.17
  A 0.43 0.42 0.0 0 1 120.48 58.75
  L 182.96 58.73
  A 0.45 0.44 2.3 0 1 183.41 59.21
  L 171.43 193.47
  Q 171.37 194.08 170.78 194.25
  L 120.50 208.20
  Q 120.01 208.34 120.01 207.83
  L 120.05 188.22
  Z"
/>
<path fill="#ebebeb" d="
  M 119.22 78.14
  L 119.93 78.23
  L 119.93 97.49
  L 119.48 97.56
  L 92.99 97.55
  Q 92.50 97.55 92.54 98.04
  L 94.17 116.96
  Q 94.22 117.51 94.76 117.51
  L 119.86 117.51
  L 119.97 134.96
  Q 119.98 136.62 121.64 136.62
  L 141.04 136.65
  L 119.78 136.81
  L 76.30 136.66
  L 75.93 130.29
  L 71.30 78.80
  Q 71.23 78.01 72.03 78.01
  L 119.22 78.14
  Z"
/>
<path fill="#ffffff" d="
  M 119.93 78.23
  L 168.31 78.22
  A 0.27 0.27 0.0 0 1 168.58 78.51
  L 166.98 97.00
  Q 166.93 97.50 166.43 97.50
  L 119.93 97.49
  L 119.93 78.23
  Z"
/>
<path fill="#e44f26" d="
  M 119.48 97.56
  Q 120.19 98.40 120.15 99.26
  Q 119.80 108.29 120.25 117.48
  Q 120.06 117.50 119.86 117.51
  L 94.76 117.51
  Q 94.22 117.51 94.17 116.96
  L 92.54 98.04
  Q 92.50 97.55 92.99 97.55
  L 119.48 97.56
  Z"
/>
<path fill="#ffffff" d="
  M 119.86 117.51
  Q 120.06 117.50 120.25 117.48
  L 164.60 117.48
  A 0.46 0.45 2.8 0 1 165.06 117.98
  L 159.78 176.73
  Q 159.74 177.17 159.32 177.28
  L 140.24 182.56
  Q 138.27 182.16 135.68 183.82
  L 121.00 187.88
  Q 119.97 187.70 119.97 187.00
  Q 119.98 178.13 119.98 169.25
  Q 119.98 168.85 120.48 167.78
  L 140.51 162.39
  A 1.57 1.56 85.2 0 0 141.66 161.02
  L 143.86 137.48
  Q 143.91 136.91 143.34 136.86
  L 141.04 136.65
  L 121.64 136.62
  Q 119.98 136.62 119.97 134.96
  L 119.86 117.51
  Z"
/>
<path fill="#f1662a" d="
  M 75.93 130.29
  L 76.30 136.66
  L 75.93 130.29
  Z"
/>
<path fill="#f1662a" d="
  M 119.78 136.81
  L 141.04 136.65
  L 143.34 136.86
  Q 143.91 136.91 143.86 137.48
  L 141.66 161.02
  A 1.57 1.56 85.2 0 1 140.51 162.39
  L 120.48 167.78
  Q 120.25 167.78 120.02 167.65
  L 120.30 167.49
  Q 120.75 167.25 120.55 166.78
  Q 120.08 165.69 120.09 164.50
  Q 120.19 150.61 119.78 136.81
  Z"
/>
<path fill="#ebebeb" d="
  M 120.02 167.65
  Q 120.25 167.78 120.48 167.78
  Q 119.98 168.85 119.98 169.25
  Q 119.98 178.13 119.97 187.00
  Q 119.97 187.70 121.00 187.88
  Q 118.62 188.12 120.05 188.22
  L 80.55 177.28
  Q 80.08 177.15 80.04 176.66
  L 77.39 147.23
  Q 77.33 146.53 78.02 146.54
  L 96.22 146.58
  Q 96.86 146.58 96.92 147.22
  L 98.29 161.73
  Q 98.33 162.15 98.74 162.25
  L 120.02 167.65
  Z"
/>
<path fill="#ffd9cf" d="
  M 140.24 182.56
  Q 138.21 183.63 135.68 183.82
  Q 138.27 182.16 140.24 182.56
  Z"
/>
<path fill="#f1662a" d="
  M 70.78 208.05
  Q 72.78 207.82 74.45 208.97
  Q 72.49 209.03 70.78 208.05
  Z"
/>
</svg>
