<?xml version="1.0" encoding="UTF-8" standalone="no"?>
<!DOCTYPE svg PUBLIC "-//W3C//DTD SVG 1.1//EN" "http://www.w3.org/Graphics/SVG/1.1/DTD/svg11.dtd">
<svg xmlns="http://www.w3.org/2000/svg" version="1.1" viewBox="0.00 0.00 209.00 259.00">
<path stroke="#f9d397" stroke-width="2.00" fill="none" stroke-linecap="butt" vector-effect="non-scaling-stroke" d="
  M 125.81 114.28
  Q 124.91 114.01 125.76 113.62
  C 140.05 106.96 148.43 94.02 147.16 78.34
  C 145.10 52.92 125.88 42.63 102.26 42.93
  C 80.54 43.21 60.44 58.48 60.53 81.51
  Q 60.53 82.00 61.02 82.00
  L 77.99 82.00
  Q 78.48 82.00 78.50 81.51
  C 79.36 62.28 96.37 54.29 113.28 58.73
  C 120.37 60.59 125.23 64.81 127.53 71.62
  C 129.84 78.48 129.92 88.99 125.92 95.41
  C 117.46 108.96 102.21 107.02 88.66 107.00
  Q 88.13 107.00 88.13 107.53
  L 88.13 121.46
  A 0.39 0.39 0.0 0 0 88.52 121.85
  C 107.27 121.61 129.92 121.03 131.28 146.35
  C 131.97 158.98 126.23 170.21 112.97 173.12
  C 95.61 176.94 77.93 170.02 77.41 149.88
  Q 77.39 149.36 76.88 149.36
  L 59.78 149.37
  Q 59.28 149.37 59.28 149.87
  C 59.41 182.12 92.56 193.80 119.17 187.12
  C 140.19 181.85 152.08 162.86 148.92 141.67
  C 146.94 128.35 138.72 118.17 125.81 114.28"
/>
<path fill="#f3a72f" d="
  M 104.26 241.47
  L 17.42 218.09
  A 0.32 0.32 0.0 0 1 17.18 217.80
  L 0.50 0.85
  A 0.32 0.32 0.0 0 1 0.82 0.51
  L 207.84 0.51
  A 0.32 0.32 0.0 0 1 208.16 0.85
  L 191.47 214.47
  A 0.32 0.32 0.0 0 1 191.24 214.75
  L 104.44 241.46
  A 0.32 0.32 0.0 0 1 104.26 241.47
  Z
  M 125.81 114.28
  Q 124.91 114.01 125.76 113.62
  C 140.05 106.96 148.43 94.02 147.16 78.34
  C 145.10 52.92 125.88 42.63 102.26 42.93
  C 80.54 43.21 60.44 58.48 60.53 81.51
  Q 60.53 82.00 61.02 82.00
  L 77.99 82.00
  Q 78.48 82.00 78.50 81.51
  C 79.36 62.28 96.37 54.29 113.28 58.73
  C 120.37 60.59 125.23 64.81 127.53 71.62
  C 129.84 78.48 129.92 88.99 125.92 95.41
  C 117.46 108.96 102.21 107.02 88.66 107.00
  Q 88.13 107.00 88.13 107.53
  L 88.13 121.46
  A 0.39 0.39 0.0 0 0 88.52 121.85
  C 107.27 121.61 129.92 121.03 131.28 146.35
  C 131.97 158.98 126.23 170.21 112.97 173.12
  C 95.61 176.94 77.93 170.02 77.41 149.88
  Q 77.39 149.36 76.88 149.36
  L 59.78 149.37
  Q 59.28 149.37 59.28 149.87
  C 59.41 182.12 92.56 193.80 119.17 187.12
  C 140.19 181.85 152.08 162.86 148.92 141.67
  C 146.94 128.35 138.72 118.17 125.81 114.28
  Z"
/>
<path fill="#ffffff" d="
  M 125.81 114.28
  C 138.72 118.17 146.94 128.35 148.92 141.67
  C 152.08 162.86 140.19 181.85 119.17 187.12
  C 92.56 193.80 59.41 182.12 59.28 149.87
  Q 59.28 149.37 59.78 149.37
  L 76.88 149.36
  Q 77.39 149.36 77.41 149.88
  C 77.93 170.02 95.61 176.94 112.97 173.12
  C 126.23 170.21 131.97 158.98 131.28 146.35
  C 129.92 121.03 107.27 121.61 88.52 121.85
  A 0.39 0.39 0.0 0 1 88.13 121.46
  L 88.13 107.53
  Q 88.13 107.00 88.66 107.00
  C 102.21 107.02 117.46 108.96 125.92 95.41
  C 129.92 88.99 129.84 78.48 127.53 71.62
  C 125.23 64.81 120.37 60.59 113.28 58.73
  C 96.37 54.29 79.36 62.28 78.50 81.51
  Q 78.48 82.00 77.99 82.00
  L 61.02 82.00
  Q 60.53 82.00 60.53 81.51
  C 60.44 58.48 80.54 43.21 102.26 42.93
  C 125.88 42.63 145.10 52.92 147.16 78.34
  C 148.43 94.02 140.05 106.96 125.76 113.62
  Q 124.91 114.01 125.81 114.28
  Z"
/>
</svg>
