<?xml version="1.0" encoding="UTF-8" standalone="no"?>
<!DOCTYPE svg PUBLIC "-//W3C//DTD SVG 1.1//EN" "http://www.w3.org/Graphics/SVG/1.1/DTD/svg11.dtd">
<svg xmlns="http://www.w3.org/2000/svg" version="1.1" viewBox="0.00 0.00 240.00 240.00">
<g stroke-width="2.00" fill="none" stroke-linecap="butt">
<path stroke="#a68d7f" vector-effect="non-scaling-stroke" d="
  M 78.70 60.48
  Q 73.94 58.90 69.87 59.85
  C 67.01 60.51 63.97 60.89 61.94 61.41
  C 46.71 65.38 36.43 75.52 24.95 87.68
  C 23.71 89.00 22.52 90.87 20.99 92.42
  Q 17.98 95.47 15.37 99.15
  A 1.44 1.44 0.0 0 0 15.57 101.04
  L 30.11 114.43"
/>
<path stroke="#9d877b" vector-effect="non-scaling-stroke" d="
  M 30.11 114.43
  L 40.02 134.25"
/>
<path stroke="#a68d7f" vector-effect="non-scaling-stroke" d="
  M 40.02 134.25
  Q 41.68 136.23 43.54 137.80
  C 45.01 139.05 47.27 138.69 47.66 136.86
  Q 48.13 134.64 49.28 131.66"
/>
<path stroke="#e1c8b0" vector-effect="non-scaling-stroke" d="
  M 49.28 131.66
  Q 50.88 137.04 51.78 141.95
  Q 52.17 144.04 52.59 144.68
  Q 55.29 148.81 58.22 152.82
  C 62.29 158.38 61.54 165.06 66.01 170.22
  Q 72.21 177.38 80.75 178.86"
/>
<path stroke="#9d877b" vector-effect="non-scaling-stroke" d="
  M 80.75 178.86
  Q 84.13 180.20 87.75 180.67
  Q 92.56 181.29 94.68 181.86
  C 107.73 185.32 119.05 184.60 131.60 184.48
  C 137.57 184.43 143.30 182.75 148.92 180.95
  C 153.16 179.59 157.17 180.98 161.04 178.38"
/>
<path stroke="#e1c8b0" vector-effect="non-scaling-stroke" d="
  M 161.04 178.38
  Q 162.04 178.80 162.46 178.65
  Q 177.74 173.31 180.52 157.31
  Q 180.95 154.84 181.55 154.05
  C 184.30 150.44 187.10 147.14 188.67 142.88
  Q 190.14 138.90 191.32 134.44"
/>
<path stroke="#a68d7f" vector-effect="non-scaling-stroke" d="
  M 191.32 134.44
  Q 192.35 137.07 193.32 138.13
  A 1.83 1.82 -38.4 0 0 195.71 138.40
  Q 198.18 136.69 200.00 134.04"
/>
<path stroke="#9d877b" vector-effect="non-scaling-stroke" d="
  M 200.00 134.04
  L 209.28 115.45"
/>
<path stroke="#a68d7f" vector-effect="non-scaling-stroke" d="
  M 209.28 115.45
  L 223.56 101.31
  Q 225.32 99.57 223.68 97.71
  C 216.24 89.28 209.06 81.18 200.58 73.79
  Q 193.97 68.03 188.56 65.42
  C 180.27 61.42 170.36 58.93 161.15 59.93"
/>
<path stroke="#f2d9bc" vector-effect="non-scaling-stroke" d="
  M 161.15 59.93
  Q 147.25 56.75 131.50 56.29
  Q 104.57 55.51 78.70 60.48"
/>
<path stroke="#a38068" vector-effect="non-scaling-stroke" d="
  M 161.15 59.93
  Q 170.14 67.72 176.19 77.00"
/>
<path stroke="#debc99" vector-effect="non-scaling-stroke" d="
  M 176.19 77.00
  Q 180.00 83.96 183.34 90.85
  C 183.92 92.05 184.07 93.72 183.25 94.68
  Q 182.31 95.78 181.29 94.75
  Q 176.22 89.59 172.53 83.33
  Q 172.03 82.50 171.90 83.46
  Q 171.78 84.35 172.49 86.01
  Q 172.80 86.71 172.75 86.85
  A 1.52 1.52 0.0 0 1 170.91 87.75
  Q 160.36 84.62 150.42 85.65
  C 146.11 86.10 145.93 88.22 147.14 91.83
  Q 149.06 97.60 149.01 103.76
  Q 148.98 107.12 145.99 107.73
  A 0.63 0.63 0.0 0 0 145.81 108.90
  L 152.33 112.55"
/>
<path stroke="#786753" vector-effect="non-scaling-stroke" d="
  M 152.33 112.55
  Q 156.30 117.83 162.25 121.82"
/>
<path stroke="#debc99" vector-effect="non-scaling-stroke" d="
  M 162.25 121.82
  Q 165.89 129.71 171.03 127.88
  C 178.93 125.07 183.46 120.50 185.14 112.18
  Q 185.22 111.79 185.57 111.96
  L 185.90 112.12
  A 0.87 0.85 -76.5 0 1 186.39 112.93
  C 186.01 123.29 191.87 139.72 184.19 147.18
  Q 182.03 149.29 173.59 154.79
  Q 172.25 155.66 170.96 156.14
  A 2.07 2.07 0.0 0 1 168.23 154.71
  L 167.23 150.79"
/>
<path stroke="#a38068" vector-effect="non-scaling-stroke" d="
  M 167.23 150.79
  C 168.11 138.40 161.34 130.29 153.20 122.56
  Q 146.65 116.33 137.98 113.69"
/>
<path stroke="#debc99" vector-effect="non-scaling-stroke" d="
  M 137.98 113.69
  Q 136.76 109.61 135.30 108.70
  C 129.76 105.27 127.48 102.11 120.26 103.07
  C 114.43 103.85 109.68 105.67 105.71 109.61
  C 104.25 111.06 102.78 111.61 102.26 113.96"
/>
<path stroke="#a38068" vector-effect="non-scaling-stroke" d="
  M 102.26 113.96
  L 92.58 119.53"
/>
<path stroke="#debc99" vector-effect="non-scaling-stroke" d="
  M 92.58 119.53
  Q 87.85 119.59 85.30 123.76
  Q 85.04 124.18 84.60 124.40
  C 82.05 125.61 78.66 129.43 77.40 132.13
  C 76.54 133.96 75.62 135.23 74.57 136.80
  Q 74.32 137.16 74.37 137.60
  Q 74.50 138.61 73.85 139.38
  Q 73.54 139.76 73.50 140.24
  Q 73.35 141.95 73.14 142.63
  Q 71.50 147.70 72.12 154.48
  Q 72.23 155.73 71.07 156.81
  Q 70.75 157.10 70.42 156.83
  Q 68.81 155.56 64.73 153.31
  Q 62.27 151.95 57.30 147.40
  Q 54.73 145.05 53.66 142.38
  Q 52.08 138.39 52.48 135.49
  Q 53.83 125.65 54.62 115.75
  Q 54.77 113.94 56.09 114.22
  A 0.78 0.77 -1.9 0 1 56.66 114.75
  C 57.79 118.22 59.26 121.53 62.25 123.77
  C 64.24 125.26 72.91 129.98 74.91 127.17
  Q 76.81 124.48 78.66 122.05"
/>
<path stroke="#786753" vector-effect="non-scaling-stroke" d="
  M 78.66 122.05
  L 89.10 112.38"
/>
<path stroke="#debc99" vector-effect="non-scaling-stroke" d="
  M 89.10 112.38
  L 95.36 108.68
  Q 97.86 107.20 94.89 107.21
  C 89.70 107.21 92.74 94.53 93.41 91.92
  C 94.32 88.43 94.59 85.58 90.02 85.53
  Q 81.77 85.44 79.53 85.82
  Q 74.57 86.67 68.86 87.59
  A 0.96 0.96 0.0 0 1 67.80 86.34
  Q 68.18 85.18 67.91 84.01
  Q 67.70 83.12 67.25 83.92
  C 66.57 85.13 66.14 86.33 65.27 87.37
  Q 62.38 90.85 59.45 94.53
  A 1.03 1.02 33.4 0 1 58.17 94.79
  L 57.68 94.53
  Q 57.24 94.29 57.40 93.82
  C 59.46 87.53 62.21 83.81 65.37 78.89
  C 67.72 75.23 69.72 73.10 70.13 68.39"
/>
<path stroke="#a38068" vector-effect="non-scaling-stroke" d="
  M 70.13 68.39
  L 78.70 60.48"
/>
<path stroke="#92705c" vector-effect="non-scaling-stroke" d="
  M 70.13 68.39
  C 61.54 78.08 54.77 89.41 52.32 102.35
  C 50.66 111.06 50.42 119.46 49.51 128.21
  Q 49.30 130.20 49.28 131.66"
/>
<path stroke="#4d2e27" vector-effect="non-scaling-stroke" d="
  M 40.02 134.25
  Q 41.20 134.02 40.22 131.97
  A 1.74 1.73 36.8 0 1 40.08 131.01
  Q 40.33 129.45 40.37 127.95
  C 40.40 126.94 41.26 126.14 41.46 125.08
  C 42.13 121.39 42.77 117.86 42.83 114.09
  Q 42.86 112.40 43.39 110.79
  C 43.98 108.99 43.94 107.11 44.83 105.36
  A 1.99 1.99 0.0 0 0 45.04 104.47
  Q 45.06 100.74 46.99 97.66
  C 48.98 94.49 49.23 90.83 51.08 87.82
  Q 55.09 81.33 56.74 77.20
  Q 57.03 76.48 56.90 76.08
  A 0.81 0.81 0.0 0 0 55.49 75.83
  Q 53.09 78.90 50.49 82.01
  C 48.72 84.11 47.38 86.66 45.63 88.94
  C 41.07 94.84 37.86 102.01 34.64 108.71
  Q 34.62 108.75 33.89 110.86
  Q 33.09 113.18 30.11 114.43"
/>
<path stroke="#4d2e27" vector-effect="non-scaling-stroke" d="
  M 209.28 115.45
  Q 205.87 112.54 205.02 107.88
  Q 204.63 105.74 203.85 104.33
  C 202.31 101.52 201.01 98.64 199.22 96.04
  C 196.27 91.77 193.65 87.79 191.20 83.20
  Q 190.96 82.75 190.54 82.45
  Q 187.46 80.24 185.54 77.00
  A 0.75 0.75 0.0 0 0 184.23 77.02
  L 184.05 77.35
  Q 183.47 78.41 184.09 79.45
  C 189.56 88.63 192.21 94.63 194.85 104.68
  C 195.37 106.67 196.60 108.80 197.02 110.75
  Q 197.93 115.05 198.68 122.06
  C 198.89 123.99 199.85 124.52 199.31 126.72
  C 198.92 128.35 199.47 129.78 199.12 131.34
  Q 198.93 132.17 198.82 133.01
  Q 198.66 134.11 200.00 134.04"
/>
<path stroke="#92705c" vector-effect="non-scaling-stroke" d="
  M 191.32 134.44
  Q 190.06 123.14 188.87 111.03
  Q 188.42 106.35 187.60 101.72
  C 186.04 92.84 181.34 83.48 176.19 77.00"
/>
<path stroke="#675647" vector-effect="non-scaling-stroke" d="
  M 89.10 112.38
  Q 90.72 107.26 88.33 102.18
  C 84.22 93.46 72.11 90.50 65.21 97.69
  C 55.03 108.28 64.26 125.41 78.66 122.05"
/>
<path stroke="#92705c" vector-effect="non-scaling-stroke" d="
  M 92.58 119.53
  C 82.74 128.06 74.48 136.67 74.75 150.24
  Q 74.82 153.47 74.88 156.72"
/>
<path stroke="#896a58" vector-effect="non-scaling-stroke" d="
  M 74.88 156.72
  C 74.97 164.40 75.85 172.43 80.75 178.86"
/>
<path stroke="#896a58" vector-effect="non-scaling-stroke" d="
  M 161.04 178.38
  C 166.19 171.83 166.80 162.17 166.87 153.94"
/>
<path stroke="#92705c" vector-effect="non-scaling-stroke" d="
  M 166.87 153.94
  Q 167.47 152.27 167.23 150.79"
/>
<path stroke="#675647" vector-effect="non-scaling-stroke" d="
  M 162.25 121.82
  Q 167.71 123.58 173.19 120.68
  C 178.71 117.75 181.29 112.17 180.50 106.01
  C 178.45 90.24 156.00 89.47 152.29 104.99
  Q 151.92 106.56 152.33 112.55"
/>
<path stroke="#4d2e27" vector-effect="non-scaling-stroke" d="
  M 166.87 153.94
  Q 166.74 152.34 164.98 152.97
  Q 163.41 153.53 162.37 155.43
  A 1.75 1.67 -0.1 0 1 161.65 156.12
  C 158.34 157.79 156.20 160.63 153.27 162.25
  Q 148.34 164.96 143.42 167.02
  A 0.98 0.98 0.0 0 1 142.11 166.40
  L 140.18 160.00
  Q 140.09 159.69 139.79 159.80
  L 139.52 159.90
  Q 139.37 159.96 139.44 160.10
  Q 140.98 163.46 139.32 166.44
  Q 139.08 166.88 138.61 167.04
  C 128.49 170.57 121.14 172.04 110.68 169.77
  Q 107.61 169.11 104.52 168.57
  C 100.63 167.89 102.23 164.37 102.03 161.98
  Q 101.84 159.56 100.93 161.81
  Q 99.86 164.46 99.25 167.30
  A 0.71 0.71 0.0 0 1 98.25 167.79
  C 93.39 165.47 87.74 163.57 83.66 159.92
  C 81.83 158.29 77.64 155.66 76.58 153.66
  Q 75.45 151.52 74.99 153.90
  Q 74.80 154.89 74.88 156.72"
/>
<path stroke="#92705c" vector-effect="non-scaling-stroke" d="
  M 137.98 113.69
  Q 129.59 105.82 120.75 105.66
  Q 114.46 105.55 109.95 109.84
  C 107.32 112.34 105.45 112.98 102.26 113.96"
/>
<path stroke="#debc99" vector-effect="non-scaling-stroke" d="
  M 99.94 79.72
  C 98.24 79.50 96.35 78.90 94.68 79.18
  Q 93.74 79.34 94.67 79.55
  Q 97.72 80.25 101.47 81.20
  C 106.30 82.42 105.53 89.36 103.71 92.39
  Q 103.25 93.15 103.99 92.65
  Q 111.83 87.35 119.25 87.30
  C 126.31 87.25 131.51 89.66 137.16 93.50
  A 0.36 0.36 0.0 0 0 137.72 93.23
  C 138.17 86.87 139.14 82.61 145.60 80.29
  C 147.76 79.51 150.22 80.07 152.30 79.72
  Q 153.56 79.51 152.31 79.24
  Q 146.60 78.03 140.22 81.09
  C 137.08 82.58 136.75 85.07 135.82 87.72
  A 1.92 1.92 0.0 0 1 132.98 88.70
  C 126.99 84.87 113.69 84.37 107.79 88.57
  A 0.76 0.76 0.0 0 1 106.60 87.83
  L 106.85 86.19
  Q 106.93 85.72 106.76 85.28
  Q 104.96 80.35 99.94 79.72"
/>
<path stroke="#debc99" vector-effect="non-scaling-stroke" d="
  M 136.34 98.92
  Q 137.37 99.42 138.49 99.85
  A 0.28 0.27 78.3 0 0 138.78 99.40
  C 137.28 97.81 133.89 96.77 131.44 95.82
  C 121.24 91.88 110.75 94.19 102.61 101.37
  Q 102.57 101.41 102.60 101.45
  L 102.76 101.66
  Q 102.91 101.86 103.12 101.72
  C 113.40 94.88 125.12 93.38 136.34 98.92"
/>
<path stroke="#debc99" vector-effect="non-scaling-stroke" d="
  M 184.38 126.23
  Q 180.00 134.53 170.44 134.14
  Q 170.31 134.13 170.26 134.25
  Q 170.20 134.36 170.14 134.48
  Q 170.04 134.69 170.27 134.75
  Q 175.08 136.03 179.18 133.88
  C 181.17 132.83 184.97 128.82 184.77 126.31
  Q 184.71 125.60 184.38 126.23"
/>
<path stroke="#debc99" vector-effect="non-scaling-stroke" d="
  M 57.00 128.28
  Q 56.65 127.83 56.59 127.76
  Q 55.71 126.63 56.06 128.02
  Q 57.40 133.43 63.02 134.81
  C 66.37 135.63 70.93 135.86 73.49 133.07
  Q 75.27 131.14 73.01 132.47
  C 67.36 135.81 60.70 132.98 57.00 128.28"
/>
<path stroke="#808080" vector-effect="non-scaling-stroke" d="
  M 83.11 101.44
  A 3.98 3.98 0.0 0 0 79.13 97.46
  A 3.98 3.98 0.0 0 0 75.15 101.44
  A 3.98 3.98 0.0 0 0 79.13 105.42
  A 3.98 3.98 0.0 0 0 83.11 101.44"
/>
<path stroke="#808080" vector-effect="non-scaling-stroke" d="
  M 166.33 101.43
  A 3.94 3.94 0.0 0 0 162.39 97.49
  A 3.94 3.94 0.0 0 0 158.45 101.43
  A 3.94 3.94 0.0 0 0 162.39 105.37
  A 3.94 3.94 0.0 0 0 166.33 101.43"
/>
<path stroke="#2c1b16" vector-effect="non-scaling-stroke" d="
  M 124.6228 115.0715
  A 1.77 0.74 71.8 0 0 124.7730 113.1589
  A 1.77 0.74 71.8 0 0 123.5172 111.7085
  A 1.77 0.74 71.8 0 0 123.3670 113.6211
  A 1.77 0.74 71.8 0 0 124.6228 115.0715"
/>
<path stroke="#2c1b16" vector-effect="non-scaling-stroke" d="
  M 116.61 113.62
  L 115.88 114.35
  Q 115.76 114.47 115.86 114.61
  L 116.06 114.90
  A 0.46 0.45 55.8 0 0 116.69 115.03
  Q 117.37 114.58 117.10 113.74
  Q 116.95 113.27 116.61 113.62"
/>
<path stroke="#2c1b16" vector-effect="non-scaling-stroke" d="
  M 120.19 137.66
  C 111.67 140.69 105.98 145.47 103.20 154.41
  Q 103.13 154.65 103.36 154.74
  L 103.60 154.84
  Q 103.64 154.85 103.66 154.81
  C 107.19 147.53 111.69 141.97 119.59 139.27
  Q 120.67 138.91 122.12 139.41
  C 132.43 142.94 135.94 148.98 139.36 158.61
  Q 139.37 158.63 139.39 158.62
  Q 139.44 158.60 139.33 158.64
  Q 139.28 158.66 139.28 158.61
  Q 138.17 148.47 130.62 142.27
  C 128.26 140.32 124.60 138.90 122.24 137.48
  Q 121.69 137.15 122.03 136.63
  Q 122.28 136.24 122.25 135.78
  Q 121.78 128.40 121.60 120.98
  Q 121.55 119.02 123.31 118.80
  Q 124.09 118.70 123.39 118.35
  Q 122.42 117.87 121.92 116.91
  Q 121.62 116.31 121.16 116.81
  Q 120.02 118.08 118.32 118.25
  Q 117.54 118.32 118.24 118.69
  Q 118.90 119.04 119.66 119.15
  Q 120.30 119.25 120.28 119.89
  C 120.13 125.46 119.50 131.54 120.57 136.99
  Q 120.67 137.49 120.19 137.66"
/>
</g>
<path fill="#f5e5d3" d="
  M 113.91 0.00
  L 125.22 0.00
  C 188.02 3.58 235.56 51.31 240.00 113.91
  L 240.00 124.74
  C 236.63 187.73 188.91 235.59 126.10 240.00
  L 114.79 240.00
  Q 76.41 237.90 47.31 215.43
  Q 3.91 181.90 0.00 125.60
  L 0.00 114.77
  C 3.37 52.29 51.64 4.09 113.91 0.00
  Z
  M 78.70 60.48
  Q 73.94 58.90 69.87 59.85
  C 67.01 60.51 63.97 60.89 61.94 61.41
  C 46.71 65.38 36.43 75.52 24.95 87.68
  C 23.71 89.00 22.52 90.87 20.99 92.42
  Q 17.98 95.47 15.37 99.15
  A 1.44 1.44 0.0 0 0 15.57 101.04
  L 30.11 114.43
  L 40.02 134.25
  Q 41.68 136.23 43.54 137.80
  C 45.01 139.05 47.27 138.69 47.66 136.86
  Q 48.13 134.64 49.28 131.66
  Q 50.88 137.04 51.78 141.95
  Q 52.17 144.04 52.59 144.68
  Q 55.29 148.81 58.22 152.82
  C 62.29 158.38 61.54 165.06 66.01 170.22
  Q 72.21 177.38 80.75 178.86
  Q 84.13 180.20 87.75 180.67
  Q 92.56 181.29 94.68 181.86
  C 107.73 185.32 119.05 184.60 131.60 184.48
  C 137.57 184.43 143.30 182.75 148.92 180.95
  C 153.16 179.59 157.17 180.98 161.04 178.38
  Q 162.04 178.80 162.46 178.65
  Q 177.74 173.31 180.52 157.31
  Q 180.95 154.84 181.55 154.05
  C 184.30 150.44 187.10 147.14 188.67 142.88
  Q 190.14 138.90 191.32 134.44
  Q 192.35 137.07 193.32 138.13
  A 1.83 1.82 -38.4 0 0 195.71 138.40
  Q 198.18 136.69 200.00 134.04
  L 209.28 115.45
  L 223.56 101.31
  Q 225.32 99.57 223.68 97.71
  C 216.24 89.28 209.06 81.18 200.58 73.79
  Q 193.97 68.03 188.56 65.42
  C 180.27 61.42 170.36 58.93 161.15 59.93
  Q 147.25 56.75 131.50 56.29
  Q 104.57 55.51 78.70 60.48
  Z"
/>
<path fill="#efcca4" d="
  M 161.15 59.93
  Q 170.14 67.72 176.19 77.00
  Q 180.00 83.96 183.34 90.85
  C 183.92 92.05 184.07 93.72 183.25 94.68
  Q 182.31 95.78 181.29 94.75
  Q 176.22 89.59 172.53 83.33
  Q 172.03 82.50 171.90 83.46
  Q 171.78 84.35 172.49 86.01
  Q 172.80 86.71 172.75 86.85
  A 1.52 1.52 0.0 0 1 170.91 87.75
  Q 160.36 84.62 150.42 85.65
  C 146.11 86.10 145.93 88.22 147.14 91.83
  Q 149.06 97.60 149.01 103.76
  Q 148.98 107.12 145.99 107.73
  A 0.63 0.63 0.0 0 0 145.81 108.90
  L 152.33 112.55
  Q 156.30 117.83 162.25 121.82
  Q 165.89 129.71 171.03 127.88
  C 178.93 125.07 183.46 120.50 185.14 112.18
  Q 185.22 111.79 185.57 111.96
  L 185.90 112.12
  A 0.87 0.85 -76.5 0 1 186.39 112.93
  C 186.01 123.29 191.87 139.72 184.19 147.18
  Q 182.03 149.29 173.59 154.79
  Q 172.25 155.66 170.96 156.14
  A 2.07 2.07 0.0 0 1 168.23 154.71
  L 167.23 150.79
  C 168.11 138.40 161.34 130.29 153.20 122.56
  Q 146.65 116.33 137.98 113.69
  Q 136.76 109.61 135.30 108.70
  C 129.76 105.27 127.48 102.11 120.26 103.07
  C 114.43 103.85 109.68 105.67 105.71 109.61
  C 104.25 111.06 102.78 111.61 102.26 113.96
  L 92.58 119.53
  Q 87.85 119.59 85.30 123.76
  Q 85.04 124.18 84.60 124.40
  C 82.05 125.61 78.66 129.43 77.40 132.13
  C 76.54 133.96 75.62 135.23 74.57 136.80
  Q 74.32 137.16 74.37 137.60
  Q 74.50 138.61 73.85 139.38
  Q 73.54 139.76 73.50 140.24
  Q 73.35 141.95 73.14 142.63
  Q 71.50 147.70 72.12 154.48
  Q 72.23 155.73 71.07 156.81
  Q 70.75 157.10 70.42 156.83
  Q 68.81 155.56 64.73 153.31
  Q 62.27 151.95 57.30 147.40
  Q 54.73 145.05 53.66 142.38
  Q 52.08 138.39 52.48 135.49
  Q 53.83 125.65 54.62 115.75
  Q 54.77 113.94 56.09 114.22
  A 0.78 0.77 -1.9 0 1 56.66 114.75
  C 57.79 118.22 59.26 121.53 62.25 123.77
  C 64.24 125.26 72.91 129.98 74.91 127.17
  Q 76.81 124.48 78.66 122.05
  L 89.10 112.38
  L 95.36 108.68
  Q 97.86 107.20 94.89 107.21
  C 89.70 107.21 92.74 94.53 93.41 91.92
  C 94.32 88.43 94.59 85.58 90.02 85.53
  Q 81.77 85.44 79.53 85.82
  Q 74.57 86.67 68.86 87.59
  A 0.96 0.96 0.0 0 1 67.80 86.34
  Q 68.18 85.18 67.91 84.01
  Q 67.70 83.12 67.25 83.92
  C 66.57 85.13 66.14 86.33 65.27 87.37
  Q 62.38 90.85 59.45 94.53
  A 1.03 1.02 33.4 0 1 58.17 94.79
  L 57.68 94.53
  Q 57.24 94.29 57.40 93.82
  C 59.46 87.53 62.21 83.81 65.37 78.89
  C 67.72 75.23 69.72 73.10 70.13 68.39
  L 78.70 60.48
  Q 104.57 55.51 131.50 56.29
  Q 147.25 56.75 161.15 59.93
  Z
  M 99.94 79.72
  C 98.24 79.50 96.35 78.90 94.68 79.18
  Q 93.74 79.34 94.67 79.55
  Q 97.72 80.25 101.47 81.20
  C 106.30 82.42 105.53 89.36 103.71 92.39
  Q 103.25 93.15 103.99 92.65
  Q 111.83 87.35 119.25 87.30
  C 126.31 87.25 131.51 89.66 137.16 93.50
  A 0.36 0.36 0.0 0 0 137.72 93.23
  C 138.17 86.87 139.14 82.61 145.60 80.29
  C 147.76 79.51 150.22 80.07 152.30 79.72
  Q 153.56 79.51 152.31 79.24
  Q 146.60 78.03 140.22 81.09
  C 137.08 82.58 136.75 85.07 135.82 87.72
  A 1.92 1.92 0.0 0 1 132.98 88.70
  C 126.99 84.87 113.69 84.37 107.79 88.57
  A 0.76 0.76 0.0 0 1 106.60 87.83
  L 106.85 86.19
  Q 106.93 85.72 106.76 85.28
  Q 104.96 80.35 99.94 79.72
  Z
  M 136.34 98.92
  Q 137.37 99.42 138.49 99.85
  A 0.28 0.27 78.3 0 0 138.78 99.40
  C 137.28 97.81 133.89 96.77 131.44 95.82
  C 121.24 91.88 110.75 94.19 102.61 101.37
  Q 102.57 101.41 102.60 101.45
  L 102.76 101.66
  Q 102.91 101.86 103.12 101.72
  C 113.40 94.88 125.12 93.38 136.34 98.92
  Z
  M 184.38 126.23
  Q 180.00 134.53 170.44 134.14
  Q 170.31 134.13 170.26 134.25
  Q 170.20 134.36 170.14 134.48
  Q 170.04 134.69 170.27 134.75
  Q 175.08 136.03 179.18 133.88
  C 181.17 132.83 184.97 128.82 184.77 126.31
  Q 184.71 125.60 184.38 126.23
  Z
  M 57.00 128.28
  Q 56.65 127.83 56.59 127.76
  Q 55.71 126.63 56.06 128.02
  Q 57.40 133.43 63.02 134.81
  C 66.37 135.63 70.93 135.86 73.49 133.07
  Q 75.27 131.14 73.01 132.47
  C 67.36 135.81 60.70 132.98 57.00 128.28
  Z"
/>
<path fill="#56342b" d="
  M 78.70 60.48
  L 70.13 68.39
  C 61.54 78.08 54.77 89.41 52.32 102.35
  C 50.66 111.06 50.42 119.46 49.51 128.21
  Q 49.30 130.20 49.28 131.66
  Q 48.13 134.64 47.66 136.86
  C 47.27 138.69 45.01 139.05 43.54 137.80
  Q 41.68 136.23 40.02 134.25
  Q 41.20 134.02 40.22 131.97
  A 1.74 1.73 36.8 0 1 40.08 131.01
  Q 40.33 129.45 40.37 127.95
  C 40.40 126.94 41.26 126.14 41.46 125.08
  C 42.13 121.39 42.77 117.86 42.83 114.09
  Q 42.86 112.40 43.39 110.79
  C 43.98 108.99 43.94 107.11 44.83 105.36
  A 1.99 1.99 0.0 0 0 45.04 104.47
  Q 45.06 100.74 46.99 97.66
  C 48.98 94.49 49.23 90.83 51.08 87.82
  Q 55.09 81.33 56.74 77.20
  Q 57.03 76.48 56.90 76.08
  A 0.81 0.81 0.0 0 0 55.49 75.83
  Q 53.09 78.90 50.49 82.01
  C 48.72 84.11 47.38 86.66 45.63 88.94
  C 41.07 94.84 37.86 102.01 34.64 108.71
  Q 34.62 108.75 33.89 110.86
  Q 33.09 113.18 30.11 114.43
  L 15.57 101.04
  A 1.44 1.44 0.0 0 1 15.37 99.15
  Q 17.98 95.47 20.99 92.42
  C 22.52 90.87 23.71 89.00 24.95 87.68
  C 36.43 75.52 46.71 65.38 61.94 61.41
  C 63.97 60.89 67.01 60.51 69.87 59.85
  Q 73.94 58.90 78.70 60.48
  Z"
/>
<path fill="#56342b" d="
  M 161.15 59.93
  C 170.36 58.93 180.27 61.42 188.56 65.42
  Q 193.97 68.03 200.58 73.79
  C 209.06 81.18 216.24 89.28 223.68 97.71
  Q 225.32 99.57 223.56 101.31
  L 209.28 115.45
  Q 205.87 112.54 205.02 107.88
  Q 204.63 105.74 203.85 104.33
  C 202.31 101.52 201.01 98.64 199.22 96.04
  C 196.27 91.77 193.65 87.79 191.20 83.20
  Q 190.96 82.75 190.54 82.45
  Q 187.46 80.24 185.54 77.00
  A 0.75 0.75 0.0 0 0 184.23 77.02
  L 184.05 77.35
  Q 183.47 78.41 184.09 79.45
  C 189.56 88.63 192.21 94.63 194.85 104.68
  C 195.37 106.67 196.60 108.80 197.02 110.75
  Q 197.93 115.05 198.68 122.06
  C 198.89 123.99 199.85 124.52 199.31 126.72
  C 198.92 128.35 199.47 129.78 199.12 131.34
  Q 198.93 132.17 198.82 133.01
  Q 198.66 134.11 200.00 134.04
  Q 198.18 136.69 195.71 138.40
  A 1.83 1.82 -38.4 0 1 193.32 138.13
  Q 192.35 137.07 191.32 134.44
  Q 190.06 123.14 188.87 111.03
  Q 188.42 106.35 187.60 101.72
  C 186.04 92.84 181.34 83.48 176.19 77.00
  Q 170.14 67.72 161.15 59.93
  Z"
/>
<path fill="#cdab8d" d="
  M 70.13 68.39
  C 69.72 73.10 67.72 75.23 65.37 78.89
  C 62.21 83.81 59.46 87.53 57.40 93.82
  Q 57.24 94.29 57.68 94.53
  L 58.17 94.79
  A 1.03 1.02 33.4 0 0 59.45 94.53
  Q 62.38 90.85 65.27 87.37
  C 66.14 86.33 66.57 85.13 67.25 83.92
  Q 67.70 83.12 67.91 84.01
  Q 68.18 85.18 67.80 86.34
  A 0.96 0.96 0.0 0 0 68.86 87.59
  Q 74.57 86.67 79.53 85.82
  Q 81.77 85.44 90.02 85.53
  C 94.59 85.58 94.32 88.43 93.41 91.92
  C 92.74 94.53 89.70 107.21 94.89 107.21
  Q 97.86 107.20 95.36 108.68
  L 89.10 112.38
  Q 90.72 107.26 88.33 102.18
  C 84.22 93.46 72.11 90.50 65.21 97.69
  C 55.03 108.28 64.26 125.41 78.66 122.05
  Q 76.81 124.48 74.91 127.17
  C 72.91 129.98 64.24 125.26 62.25 123.77
  C 59.26 121.53 57.79 118.22 56.66 114.75
  A 0.78 0.77 -1.9 0 0 56.09 114.22
  Q 54.77 113.94 54.62 115.75
  Q 53.83 125.65 52.48 135.49
  Q 52.08 138.39 53.66 142.38
  Q 54.73 145.05 57.30 147.40
  Q 62.27 151.95 64.73 153.31
  Q 68.81 155.56 70.42 156.83
  Q 70.75 157.10 71.07 156.81
  Q 72.23 155.73 72.12 154.48
  Q 71.50 147.70 73.14 142.63
  Q 73.35 141.95 73.50 140.24
  Q 73.54 139.76 73.85 139.38
  Q 74.50 138.61 74.37 137.60
  Q 74.32 137.16 74.57 136.80
  C 75.62 135.23 76.54 133.96 77.40 132.13
  C 78.66 129.43 82.05 125.61 84.60 124.40
  Q 85.04 124.18 85.30 123.76
  Q 87.85 119.59 92.58 119.53
  C 82.74 128.06 74.48 136.67 74.75 150.24
  Q 74.82 153.47 74.88 156.72
  C 74.97 164.40 75.85 172.43 80.75 178.86
  Q 72.21 177.38 66.01 170.22
  C 61.54 165.06 62.29 158.38 58.22 152.82
  Q 55.29 148.81 52.59 144.68
  Q 52.17 144.04 51.78 141.95
  Q 50.88 137.04 49.28 131.66
  Q 49.30 130.20 49.51 128.21
  C 50.42 119.46 50.66 111.06 52.32 102.35
  C 54.77 89.41 61.54 78.08 70.13 68.39
  Z"
/>
<path fill="#442823" d="
  M 40.02 134.25
  L 30.11 114.43
  Q 33.09 113.18 33.89 110.86
  Q 34.62 108.75 34.64 108.71
  C 37.86 102.01 41.07 94.84 45.63 88.94
  C 47.38 86.66 48.72 84.11 50.49 82.01
  Q 53.09 78.90 55.49 75.83
  A 0.81 0.81 0.0 0 1 56.90 76.08
  Q 57.03 76.48 56.74 77.20
  Q 55.09 81.33 51.08 87.82
  C 49.23 90.83 48.98 94.49 46.99 97.66
  Q 45.06 100.74 45.04 104.47
  A 1.99 1.99 0.0 0 1 44.83 105.36
  C 43.94 107.11 43.98 108.99 43.39 110.79
  Q 42.86 112.40 42.83 114.09
  C 42.77 117.86 42.13 121.39 41.46 125.08
  C 41.26 126.14 40.40 126.94 40.37 127.95
  Q 40.33 129.45 40.08 131.01
  A 1.74 1.73 36.8 0 0 40.22 131.97
  Q 41.20 134.02 40.02 134.25
  Z"
/>
<path fill="#442823" d="
  M 209.28 115.45
  L 200.00 134.04
  Q 198.66 134.11 198.82 133.01
  Q 198.93 132.17 199.12 131.34
  C 199.47 129.78 198.92 128.35 199.31 126.72
  C 199.85 124.52 198.89 123.99 198.68 122.06
  Q 197.93 115.05 197.02 110.75
  C 196.60 108.80 195.37 106.67 194.85 104.68
  C 192.21 94.63 189.56 88.63 184.09 79.45
  Q 183.47 78.41 184.05 77.35
  L 184.23 77.02
  A 0.75 0.75 0.0 0 1 185.54 77.00
  Q 187.46 80.24 190.54 82.45
  Q 190.96 82.75 191.20 83.20
  C 193.65 87.79 196.27 91.77 199.22 96.04
  C 201.01 98.64 202.31 101.52 203.85 104.33
  Q 204.63 105.74 205.02 107.88
  Q 205.87 112.54 209.28 115.45
  Z"
/>
<path fill="#cdab8d" d="
  M 176.19 77.00
  C 181.34 83.48 186.04 92.84 187.60 101.72
  Q 188.42 106.35 188.87 111.03
  Q 190.06 123.14 191.32 134.44
  Q 190.14 138.90 188.67 142.88
  C 187.10 147.14 184.30 150.44 181.55 154.05
  Q 180.95 154.84 180.52 157.31
  Q 177.74 173.31 162.46 178.65
  Q 162.04 178.80 161.04 178.38
  C 166.19 171.83 166.80 162.17 166.87 153.94
  Q 167.47 152.27 167.23 150.79
  L 168.23 154.71
  A 2.07 2.07 0.0 0 0 170.96 156.14
  Q 172.25 155.66 173.59 154.79
  Q 182.03 149.29 184.19 147.18
  C 191.87 139.72 186.01 123.29 186.39 112.93
  A 0.87 0.85 -76.5 0 0 185.90 112.12
  L 185.57 111.96
  Q 185.22 111.79 185.14 112.18
  C 183.46 120.50 178.93 125.07 171.03 127.88
  Q 165.89 129.71 162.25 121.82
  Q 167.71 123.58 173.19 120.68
  C 178.71 117.75 181.29 112.17 180.50 106.01
  C 178.45 90.24 156.00 89.47 152.29 104.99
  Q 151.92 106.56 152.33 112.55
  L 145.81 108.90
  A 0.63 0.63 0.0 0 1 145.99 107.73
  Q 148.98 107.12 149.01 103.76
  Q 149.06 97.60 147.14 91.83
  C 145.93 88.22 146.11 86.10 150.42 85.65
  Q 160.36 84.62 170.91 87.75
  A 1.52 1.52 0.0 0 0 172.75 86.85
  Q 172.80 86.71 172.49 86.01
  Q 171.78 84.35 171.90 83.46
  Q 172.03 82.50 172.53 83.33
  Q 176.22 89.59 181.29 94.75
  Q 182.31 95.78 183.25 94.68
  C 184.07 93.72 183.92 92.05 183.34 90.85
  Q 180.00 83.96 176.19 77.00
  Z"
/>
<path fill="#cdab8d" d="
  M 99.94 79.72
  Q 104.96 80.35 106.76 85.28
  Q 106.93 85.72 106.85 86.19
  L 106.60 87.83
  A 0.76 0.76 0.0 0 0 107.79 88.57
  C 113.69 84.37 126.99 84.87 132.98 88.70
  A 1.92 1.92 0.0 0 0 135.82 87.72
  C 136.75 85.07 137.08 82.58 140.22 81.09
  Q 146.60 78.03 152.31 79.24
  Q 153.56 79.51 152.30 79.72
  C 150.22 80.07 147.76 79.51 145.60 80.29
  C 139.14 82.61 138.17 86.87 137.72 93.23
  A 0.36 0.36 0.0 0 1 137.16 93.50
  C 131.51 89.66 126.31 87.25 119.25 87.30
  Q 111.83 87.35 103.99 92.65
  Q 103.25 93.15 103.71 92.39
  C 105.53 89.36 106.30 82.42 101.47 81.20
  Q 97.72 80.25 94.67 79.55
  Q 93.74 79.34 94.68 79.18
  C 96.35 78.90 98.24 79.50 99.94 79.72
  Z"
/>
<path fill="#010101" d="
  M 89.10 112.38
  L 78.66 122.05
  C 64.26 125.41 55.03 108.28 65.21 97.69
  C 72.11 90.50 84.22 93.46 88.33 102.18
  Q 90.72 107.26 89.10 112.38
  Z
  M 83.11 101.44
  A 3.98 3.98 0.0 0 0 79.13 97.46
  A 3.98 3.98 0.0 0 0 75.15 101.44
  A 3.98 3.98 0.0 0 0 79.13 105.42
  A 3.98 3.98 0.0 0 0 83.11 101.44
  Z"
/>
<path fill="#010101" d="
  M 162.25 121.82
  Q 156.30 117.83 152.33 112.55
  Q 151.92 106.56 152.29 104.99
  C 156.00 89.47 178.45 90.24 180.50 106.01
  C 181.29 112.17 178.71 117.75 173.19 120.68
  Q 167.71 123.58 162.25 121.82
  Z
  M 166.33 101.43
  A 3.94 3.94 0.0 0 0 162.39 97.49
  A 3.94 3.94 0.0 0 0 158.45 101.43
  A 3.94 3.94 0.0 0 0 162.39 105.37
  A 3.94 3.94 0.0 0 0 166.33 101.43
  Z"
/>
<path fill="#cdab8d" d="
  M 136.34 98.92
  C 125.12 93.38 113.40 94.88 103.12 101.72
  Q 102.91 101.86 102.76 101.66
  L 102.60 101.45
  Q 102.57 101.41 102.61 101.37
  C 110.75 94.19 121.24 91.88 131.44 95.82
  C 133.89 96.77 137.28 97.81 138.78 99.40
  A 0.28 0.27 78.3 0 1 138.49 99.85
  Q 137.37 99.42 136.34 98.92
  Z"
/>
<circle fill="#ffffff" cx="79.13" cy="101.44" r="3.98"/>
<circle fill="#ffffff" cx="162.39" cy="101.43" r="3.94"/>
<path fill="#cdab8d" d="
  M 137.98 113.69
  Q 129.59 105.82 120.75 105.66
  Q 114.46 105.55 109.95 109.84
  C 107.32 112.34 105.45 112.98 102.26 113.96
  C 102.78 111.61 104.25 111.06 105.71 109.61
  C 109.68 105.67 114.43 103.85 120.26 103.07
  C 127.48 102.11 129.76 105.27 135.30 108.70
  Q 136.76 109.61 137.98 113.69
  Z"
/>
<path fill="#56342b" d="
  M 137.98 113.69
  Q 146.65 116.33 153.20 122.56
  C 161.34 130.29 168.11 138.40 167.23 150.79
  Q 167.47 152.27 166.87 153.94
  Q 166.74 152.34 164.98 152.97
  Q 163.41 153.53 162.37 155.43
  A 1.75 1.67 -0.1 0 1 161.65 156.12
  C 158.34 157.79 156.20 160.63 153.27 162.25
  Q 148.34 164.96 143.42 167.02
  A 0.98 0.98 0.0 0 1 142.11 166.40
  L 140.18 160.00
  Q 140.09 159.69 139.79 159.80
  L 139.52 159.90
  Q 139.37 159.96 139.44 160.10
  Q 140.98 163.46 139.32 166.44
  Q 139.08 166.88 138.61 167.04
  C 128.49 170.57 121.14 172.04 110.68 169.77
  Q 107.61 169.11 104.52 168.57
  C 100.63 167.89 102.23 164.37 102.03 161.98
  Q 101.84 159.56 100.93 161.81
  Q 99.86 164.46 99.25 167.30
  A 0.71 0.71 0.0 0 1 98.25 167.79
  C 93.39 165.47 87.74 163.57 83.66 159.92
  C 81.83 158.29 77.64 155.66 76.58 153.66
  Q 75.45 151.52 74.99 153.90
  Q 74.80 154.89 74.88 156.72
  Q 74.82 153.47 74.75 150.24
  C 74.48 136.67 82.74 128.06 92.58 119.53
  L 102.26 113.96
  C 105.45 112.98 107.32 112.34 109.95 109.84
  Q 114.46 105.55 120.75 105.66
  Q 129.59 105.82 137.98 113.69
  Z
  M 124.6228 115.0715
  A 1.77 0.74 71.8 0 0 124.7730 113.1589
  A 1.77 0.74 71.8 0 0 123.5172 111.7085
  A 1.77 0.74 71.8 0 0 123.3670 113.6211
  A 1.77 0.74 71.8 0 0 124.6228 115.0715
  Z
  M 116.61 113.62
  L 115.88 114.35
  Q 115.76 114.47 115.86 114.61
  L 116.06 114.90
  A 0.46 0.45 55.8 0 0 116.69 115.03
  Q 117.37 114.58 117.10 113.74
  Q 116.95 113.27 116.61 113.62
  Z
  M 120.19 137.66
  C 111.67 140.69 105.98 145.47 103.20 154.41
  Q 103.13 154.65 103.36 154.74
  L 103.60 154.84
  Q 103.64 154.85 103.66 154.81
  C 107.19 147.53 111.69 141.97 119.59 139.27
  Q 120.67 138.91 122.12 139.41
  C 132.43 142.94 135.94 148.98 139.36 158.61
  Q 139.37 158.63 139.39 158.62
  Q 139.44 158.60 139.33 158.64
  Q 139.28 158.66 139.28 158.61
  Q 138.17 148.47 130.62 142.27
  C 128.26 140.32 124.60 138.90 122.24 137.48
  Q 121.69 137.15 122.03 136.63
  Q 122.28 136.24 122.25 135.78
  Q 121.78 128.40 121.60 120.98
  Q 121.55 119.02 123.31 118.80
  Q 124.09 118.70 123.39 118.35
  Q 122.42 117.87 121.92 116.91
  Q 121.62 116.31 121.16 116.81
  Q 120.02 118.08 118.32 118.25
  Q 117.54 118.32 118.24 118.69
  Q 118.90 119.04 119.66 119.15
  Q 120.30 119.25 120.28 119.89
  C 120.13 125.46 119.50 131.54 120.57 136.99
  Q 120.67 137.49 120.19 137.66
  Z"
/>
<ellipse fill="#010101" cx="0.00" cy="0.00" transform="translate(124.07,113.39) rotate(71.8)" rx="1.77" ry="0.74"/>
<path fill="#010101" d="
  M 117.10 113.74
  Q 117.37 114.58 116.69 115.03
  A 0.46 0.45 55.8 0 1 116.06 114.90
  L 115.86 114.61
  Q 115.76 114.47 115.88 114.35
  L 116.61 113.62
  Q 116.95 113.27 117.10 113.74
  Z"
/>
<path fill="#010101" d="
  M 120.57 136.99
  C 119.50 131.54 120.13 125.46 120.28 119.89
  Q 120.30 119.25 119.66 119.15
  Q 118.90 119.04 118.24 118.69
  Q 117.54 118.32 118.32 118.25
  Q 120.02 118.08 121.16 116.81
  Q 121.62 116.31 121.92 116.91
  Q 122.42 117.87 123.39 118.35
  Q 124.09 118.70 123.31 118.80
  Q 121.55 119.02 121.60 120.98
  Q 121.78 128.40 122.25 135.78
  Q 122.28 136.24 122.03 136.63
  Q 121.69 137.15 122.24 137.48
  C 124.60 138.90 128.26 140.32 130.62 142.27
  Q 138.17 148.47 139.28 158.61
  Q 139.28 158.66 139.33 158.64
  Q 139.44 158.60 139.39 158.62
  Q 139.37 158.63 139.36 158.61
  C 135.94 148.98 132.43 142.94 122.12 139.41
  Q 120.67 138.91 119.59 139.27
  C 111.69 141.97 107.19 147.53 103.66 154.81
  Q 103.64 154.85 103.60 154.84
  L 103.36 154.74
  Q 103.13 154.65 103.20 154.41
  C 105.98 145.47 111.67 140.69 120.19 137.66
  Q 120.67 137.49 120.57 136.99
  Z"
/>
<path fill="#cdab8d" d="
  M 184.38 126.23
  Q 184.71 125.60 184.77 126.31
  C 184.97 128.82 181.17 132.83 179.18 133.88
  Q 175.08 136.03 170.27 134.75
  Q 170.04 134.69 170.14 134.48
  Q 170.20 134.36 170.26 134.25
  Q 170.31 134.13 170.44 134.14
  Q 180.00 134.53 184.38 126.23
  Z"
/>
<path fill="#cdab8d" d="
  M 57.00 128.28
  C 60.70 132.98 67.36 135.81 73.01 132.47
  Q 75.27 131.14 73.49 133.07
  C 70.93 135.86 66.37 135.63 63.02 134.81
  Q 57.40 133.43 56.06 128.02
  Q 55.71 126.63 56.59 127.76
  Q 56.65 127.83 57.00 128.28
  Z"
/>
<path fill="#442823" d="
  M 166.87 153.94
  C 166.80 162.17 166.19 171.83 161.04 178.38
  C 157.17 180.98 153.16 179.59 148.92 180.95
  C 143.30 182.75 137.57 184.43 131.60 184.48
  C 119.05 184.60 107.73 185.32 94.68 181.86
  Q 92.56 181.29 87.75 180.67
  Q 84.13 180.20 80.75 178.86
  C 75.85 172.43 74.97 164.40 74.88 156.72
  Q 74.80 154.89 74.99 153.90
  Q 75.45 151.52 76.58 153.66
  C 77.64 155.66 81.83 158.29 83.66 159.92
  C 87.74 163.57 93.39 165.47 98.25 167.79
  A 0.71 0.71 0.0 0 0 99.25 167.30
  Q 99.86 164.46 100.93 161.81
  Q 101.84 159.56 102.03 161.98
  C 102.23 164.37 100.63 167.89 104.52 168.57
  Q 107.61 169.11 110.68 169.77
  C 121.14 172.04 128.49 170.57 138.61 167.04
  Q 139.08 166.88 139.32 166.44
  Q 140.98 163.46 139.44 160.10
  Q 139.37 159.96 139.52 159.90
  L 139.79 159.80
  Q 140.09 159.69 140.18 160.00
  L 142.11 166.40
  A 0.98 0.98 0.0 0 0 143.42 167.02
  Q 148.34 164.96 153.27 162.25
  C 156.20 160.63 158.34 157.79 161.65 156.12
  A 1.75 1.67 -0.1 0 0 162.37 155.43
  Q 163.41 153.53 164.98 152.97
  Q 166.74 152.34 166.87 153.94
  Z"
/>
</svg>
