<?xml version="1.0" encoding="UTF-8" standalone="no"?>
<!DOCTYPE svg PUBLIC "-//W3C//DTD SVG 1.1//EN" "http://www.w3.org/Graphics/SVG/1.1/DTD/svg11.dtd">
<svg xmlns="http://www.w3.org/2000/svg" version="1.1" viewBox="0.00 0.00 240.00 240.00">
<g stroke-width="2.00" fill="none" stroke-linecap="butt">
<path stroke="#f6c579" vector-effect="non-scaling-stroke" d="
  M 121.48 213.02
  C 141.07 207.84 160.66 202.19 180.09 196.60
  A 1.37 1.37 0.0 0 0 181.08 195.40
  Q 185.05 150.39 189.10 105.31
  Q 189.10 105.26 189.35 100.69
  Q 189.48 98.20 189.96 94.25
  Q 191.47 81.62 192.53 61.71
  C 192.67 59.07 193.66 56.01 193.36 52.75
  Q 193.21 51.17 194.04 50.62
  A 0.47 0.47 0.0 0 0 193.78 49.75
  L 46.25 49.73
  Q 45.90 49.73 45.81 50.08
  C 45.29 52.21 46.26 53.90 46.25 55.76
  C 46.21 59.60 46.98 63.93 47.19 67.09
  Q 47.69 74.57 48.07 76.75
  C 48.89 81.42 48.78 86.17 49.42 90.76
  C 49.91 94.25 49.74 97.96 50.32 101.60
  C 50.60 103.40 50.36 105.35 50.69 107.23
  C 51.30 110.68 51.22 113.32 51.55 116.49
  Q 53.38 134.15 54.87 151.84
  C 55.31 157.06 56.09 161.88 56.38 167.50
  Q 56.62 172.40 58.76 190.76
  Q 59.08 193.49 59.15 196.61
  A 1.43 1.42 -83.4 0 0 60.22 197.97
  Q 87.65 205.01 115.50 212.47
  C 117.62 213.04 119.24 213.62 121.48 213.02"
/>
<path stroke="#f1ba2d" vector-effect="non-scaling-stroke" d="
  M 117.58 197.83
  A 0.50 0.50 0.0 0 0 118.21 198.31
  L 167.35 184.62
  A 0.50 0.50 0.0 0 0 167.71 184.18
  L 178.26 61.78
  A 0.50 0.50 0.0 0 0 177.77 61.24
  L 118.09 61.20
  A 0.50 0.50 0.0 0 0 117.59 61.70
  L 117.58 197.83"
/>
<path stroke="#f2ca8d" vector-effect="non-scaling-stroke" d="
  M 67.31 156.02
  A 0.54 0.54 0.0 0 0 67.78 156.55
  L 112.15 162.71
  A 0.54 0.54 0.0 0 0 112.76 162.18
  L 112.76 85.87
  A 0.54 0.54 0.0 0 0 112.22 85.33
  L 98.06 85.29
  A 0.54 0.54 0.0 0 0 97.52 85.83
  L 97.55 145.97
  A 0.54 0.54 0.0 0 1 97.01 146.51
  L 82.88 146.50
  A 0.54 0.54 0.0 0 1 82.35 145.96
  L 82.41 138.81
  A 0.54 0.54 0.0 0 0 81.88 138.27
  L 67.93 138.26
  A 0.54 0.54 0.0 0 0 67.39 138.80
  L 67.31 156.02"
/>
<path stroke="#f0dc8a" vector-effect="non-scaling-stroke" d="
  M 137.27 116.43
  A 0.52 0.52 0.0 0 1 136.75 115.91
  L 136.75 101.31
  A 0.52 0.52 0.0 0 1 137.27 100.79
  L 165.14 100.87
  A 0.52 0.52 0.0 0 0 165.66 100.32
  L 165.10 89.98
  A 0.52 0.52 0.0 0 0 164.64 89.49
  L 122.97 85.39
  A 0.52 0.52 0.0 0 0 122.40 85.90
  L 122.38 131.23
  A 0.52 0.52 0.0 0 0 122.90 131.75
  L 150.82 131.74
  A 0.52 0.52 0.0 0 1 151.34 132.26
  L 151.37 146.71
  A 0.52 0.52 0.0 0 1 150.85 147.23
  L 122.96 147.24
  A 0.52 0.52 0.0 0 0 122.44 147.76
  L 122.37 162.19
  A 0.52 0.52 0.0 0 0 122.94 162.71
  L 164.53 158.66
  A 0.52 0.52 0.0 0 0 165.00 158.16
  L 165.73 116.93
  A 0.52 0.52 0.0 0 0 165.21 116.40
  L 137.27 116.43"
/>
</g>
<path fill="#f8e3c1" d="
  M 113.87 0.00
  L 125.23 0.00
  C 188.00 3.63 235.60 51.29 240.00 113.91
  L 240.00 124.72
  Q 238.09 163.03 215.88 192.13
  Q 182.55 235.79 126.10 240.00
  L 114.79 240.00
  Q 75.25 237.81 45.62 214.13
  Q 3.77 180.66 0.00 125.60
  L 0.00 114.77
  Q 1.86 80.48 19.86 53.86
  Q 53.02 4.79 113.87 0.00
  Z
  M 121.48 213.02
  C 141.07 207.84 160.66 202.19 180.09 196.60
  A 1.37 1.37 0.0 0 0 181.08 195.40
  Q 185.05 150.39 189.10 105.31
  Q 189.10 105.26 189.35 100.69
  Q 189.48 98.20 189.96 94.25
  Q 191.47 81.62 192.53 61.71
  C 192.67 59.07 193.66 56.01 193.36 52.75
  Q 193.21 51.17 194.04 50.62
  A 0.47 0.47 0.0 0 0 193.78 49.75
  L 46.25 49.73
  Q 45.90 49.73 45.81 50.08
  C 45.29 52.21 46.26 53.90 46.25 55.76
  C 46.21 59.60 46.98 63.93 47.19 67.09
  Q 47.69 74.57 48.07 76.75
  C 48.89 81.42 48.78 86.17 49.42 90.76
  C 49.91 94.25 49.74 97.96 50.32 101.60
  C 50.60 103.40 50.36 105.35 50.69 107.23
  C 51.30 110.68 51.22 113.32 51.55 116.49
  Q 53.38 134.15 54.87 151.84
  C 55.31 157.06 56.09 161.88 56.38 167.50
  Q 56.62 172.40 58.76 190.76
  Q 59.08 193.49 59.15 196.61
  A 1.43 1.42 -83.4 0 0 60.22 197.97
  Q 87.65 205.01 115.50 212.47
  C 117.62 213.04 119.24 213.62 121.48 213.02
  Z"
/>
<path fill="#f3a730" d="
  M 180.09 196.60
  C 160.66 202.19 141.07 207.84 121.48 213.02
  C 119.24 213.62 117.62 213.04 115.50 212.47
  Q 87.65 205.01 60.22 197.97
  A 1.43 1.42 -83.4 0 1 59.15 196.61
  Q 59.08 193.49 58.76 190.76
  Q 56.62 172.40 56.38 167.50
  C 56.09 161.88 55.31 157.06 54.87 151.84
  Q 53.38 134.15 51.55 116.49
  C 51.22 113.32 51.30 110.68 50.69 107.23
  C 50.36 105.35 50.60 103.40 50.32 101.60
  C 49.74 97.96 49.91 94.25 49.42 90.76
  C 48.78 86.17 48.89 81.42 48.07 76.75
  Q 47.69 74.57 47.19 67.09
  C 46.98 63.93 46.21 59.60 46.25 55.76
  C 46.26 53.90 45.29 52.21 45.81 50.08
  Q 45.90 49.73 46.25 49.73
  L 193.78 49.75
  A 0.47 0.47 0.0 0 1 194.04 50.62
  Q 193.21 51.17 193.36 52.75
  C 193.66 56.01 192.67 59.07 192.53 61.71
  Q 191.47 81.62 189.96 94.25
  Q 189.48 98.20 189.35 100.69
  Q 189.10 105.26 189.10 105.31
  Q 185.05 150.39 181.08 195.40
  A 1.37 1.37 0.0 0 1 180.09 196.60
  Z
  M 117.58 197.83
  A 0.50 0.50 0.0 0 0 118.21 198.31
  L 167.35 184.62
  A 0.50 0.50 0.0 0 0 167.71 184.18
  L 178.26 61.78
  A 0.50 0.50 0.0 0 0 177.77 61.24
  L 118.09 61.20
  A 0.50 0.50 0.0 0 0 117.59 61.70
  L 117.58 197.83
  Z
  M 67.31 156.02
  A 0.54 0.54 0.0 0 0 67.78 156.55
  L 112.15 162.71
  A 0.54 0.54 0.0 0 0 112.76 162.18
  L 112.76 85.87
  A 0.54 0.54 0.0 0 0 112.22 85.33
  L 98.06 85.29
  A 0.54 0.54 0.0 0 0 97.52 85.83
  L 97.55 145.97
  A 0.54 0.54 0.0 0 1 97.01 146.51
  L 82.88 146.50
  A 0.54 0.54 0.0 0 1 82.35 145.96
  L 82.41 138.81
  A 0.54 0.54 0.0 0 0 81.88 138.27
  L 67.93 138.26
  A 0.54 0.54 0.0 0 0 67.39 138.80
  L 67.31 156.02
  Z"
/>
<path fill="#efcc2a" d="
  M 117.58 197.83
  L 117.59 61.70
  A 0.50 0.50 0.0 0 1 118.09 61.20
  L 177.77 61.24
  A 0.50 0.50 0.0 0 1 178.26 61.78
  L 167.71 184.18
  A 0.50 0.50 0.0 0 1 167.35 184.62
  L 118.21 198.31
  A 0.50 0.50 0.0 0 1 117.58 197.83
  Z
  M 137.27 116.43
  A 0.52 0.52 0.0 0 1 136.75 115.91
  L 136.75 101.31
  A 0.52 0.52 0.0 0 1 137.27 100.79
  L 165.14 100.87
  A 0.52 0.52 0.0 0 0 165.66 100.32
  L 165.10 89.98
  A 0.52 0.52 0.0 0 0 164.64 89.49
  L 122.97 85.39
  A 0.52 0.52 0.0 0 0 122.40 85.90
  L 122.38 131.23
  A 0.52 0.52 0.0 0 0 122.90 131.75
  L 150.82 131.74
  A 0.52 0.52 0.0 0 1 151.34 132.26
  L 151.37 146.71
  A 0.52 0.52 0.0 0 1 150.85 147.23
  L 122.96 147.24
  A 0.52 0.52 0.0 0 0 122.44 147.76
  L 122.37 162.19
  A 0.52 0.52 0.0 0 0 122.94 162.71
  L 164.53 158.66
  A 0.52 0.52 0.0 0 0 165.00 158.16
  L 165.73 116.93
  A 0.52 0.52 0.0 0 0 165.21 116.40
  L 137.27 116.43
  Z"
/>
<path fill="#f1ece9" d="
  M 67.31 156.02
  L 67.39 138.80
  A 0.54 0.54 0.0 0 1 67.93 138.26
  L 81.88 138.27
  A 0.54 0.54 0.0 0 1 82.41 138.81
  L 82.35 145.96
  A 0.54 0.54 0.0 0 0 82.88 146.50
  L 97.01 146.51
  A 0.54 0.54 0.0 0 0 97.55 145.97
  L 97.52 85.83
  A 0.54 0.54 0.0 0 1 98.06 85.29
  L 112.22 85.33
  A 0.54 0.54 0.0 0 1 112.76 85.87
  L 112.76 162.18
  A 0.54 0.54 0.0 0 1 112.15 162.71
  L 67.78 156.55
  A 0.54 0.54 0.0 0 1 67.31 156.02
  Z"
/>
<path fill="#f1ece9" d="
  M 137.27 116.43
  L 165.21 116.40
  A 0.52 0.52 0.0 0 1 165.73 116.93
  L 165.00 158.16
  A 0.52 0.52 0.0 0 1 164.53 158.66
  L 122.94 162.71
  A 0.52 0.52 0.0 0 1 122.37 162.19
  L 122.44 147.76
  A 0.52 0.52 0.0 0 1 122.96 147.24
  L 150.85 147.23
  A 0.52 0.52 0.0 0 0 151.37 146.71
  L 151.34 132.26
  A 0.52 0.52 0.0 0 0 150.82 131.74
  L 122.90 131.75
  A 0.52 0.52 0.0 0 1 122.38 131.23
  L 122.40 85.90
  A 0.52 0.52 0.0 0 1 122.97 85.39
  L 164.64 89.49
  A 0.52 0.52 0.0 0 1 165.10 89.98
  L 165.66 100.32
  A 0.52 0.52 0.0 0 1 165.14 100.87
  L 137.27 100.79
  A 0.52 0.52 0.0 0 0 136.75 101.31
  L 136.75 115.91
  A 0.52 0.52 0.0 0 0 137.27 116.43
  Z"
/>
</svg>
