<?xml version="1.0" encoding="UTF-8" standalone="no"?>
<!DOCTYPE svg PUBLIC "-//W3C//DTD SVG 1.1//EN" "http://www.w3.org/Graphics/SVG/1.1/DTD/svg11.dtd">
<svg xmlns="http://www.w3.org/2000/svg" version="1.1" viewBox="0.00 0.00 209.00 255.00">
<path stroke="#e7a491" stroke-width="2.00" fill="none" stroke-linecap="butt" vector-effect="non-scaling-stroke" d="
  M 103.12 62.81
  L 103.12 182.56
  A 0.44 0.44 0.0 0 0 103.56 183.00
  L 120.75 183.00
  Q 121.25 183.00 121.25 182.50
  L 121.25 40.53
  Q 121.25 40.10 120.83 40.06
  Q 118.93 39.84 118.35 40.06
  Q 92.77 49.68 67.19 59.39
  Q 66.75 59.56 66.75 60.03
  L 66.75 75.41
  A 0.31 0.31 0.0 0 0 67.17 75.70
  L 102.92 62.67
  A 0.15 0.15 0.0 0 1 103.12 62.81"
/>
<path fill="#cf4823" d="
  M 104.26 241.48
  L 17.43 218.09
  A 0.33 0.33 0.0 0 1 17.18 217.80
  L 0.50 0.86
  A 0.33 0.33 0.0 0 1 0.83 0.50
  L 207.83 0.50
  A 0.33 0.33 0.0 0 1 208.16 0.86
  L 191.48 214.47
  A 0.33 0.33 0.0 0 1 191.25 214.76
  L 104.44 241.47
  A 0.33 0.33 0.0 0 1 104.26 241.48
  Z
  M 103.12 62.81
  L 103.12 182.56
  A 0.44 0.44 0.0 0 0 103.56 183.00
  L 120.75 183.00
  Q 121.25 183.00 121.25 182.50
  L 121.25 40.53
  Q 121.25 40.10 120.83 40.06
  Q 118.93 39.84 118.35 40.06
  Q 92.77 49.68 67.19 59.39
  Q 66.75 59.56 66.75 60.03
  L 66.75 75.41
  A 0.31 0.31 0.0 0 0 67.17 75.70
  L 102.92 62.67
  A 0.15 0.15 0.0 0 1 103.12 62.81
  Z"
/>
<path fill="#ffffff" d="
  M 103.12 62.81
  A 0.15 0.15 0.0 0 0 102.92 62.67
  L 67.17 75.70
  A 0.31 0.31 0.0 0 1 66.75 75.41
  L 66.75 60.03
  Q 66.75 59.56 67.19 59.39
  Q 92.77 49.68 118.35 40.06
  Q 118.93 39.84 120.83 40.06
  Q 121.25 40.10 121.25 40.53
  L 121.25 182.50
  Q 121.25 183.00 120.75 183.00
  L 103.56 183.00
  A 0.44 0.44 0.0 0 1 103.12 182.56
  L 103.12 62.81
  Z"
/>
</svg>
