<?xml version="1.0" encoding="UTF-8" standalone="no"?>
<!DOCTYPE svg PUBLIC "-//W3C//DTD SVG 1.1//EN" "http://www.w3.org/Graphics/SVG/1.1/DTD/svg11.dtd">
<svg xmlns="http://www.w3.org/2000/svg" version="1.1" viewBox="0.00 0.00 209.00 255.00">
<path stroke="#9dcded" stroke-width="2.00" fill="none" stroke-linecap="butt" vector-effect="non-scaling-stroke" d="
  M 84.53 168.14
  A 0.36 0.36 0.0 0 1 84.27 167.54
  Q 104.59 145.54 124.44 123.70
  C 133.03 114.24 140.78 104.00 145.45 92.00
  C 150.73 78.47 149.14 61.75 138.92 51.07
  C 125.51 37.04 99.59 35.70 82.80 43.40
  C 68.03 50.17 58.97 65.46 59.26 82.17
  Q 59.27 82.64 59.74 82.64
  L 76.77 82.63
  Q 77.27 82.62 77.27 82.13
  C 77.29 70.69 81.96 60.30 93.00 55.80
  C 104.19 51.24 119.34 53.17 126.35 64.58
  C 137.63 82.93 123.51 101.50 111.44 114.94
  Q 87.69 141.37 62.35 169.48
  Q 61.87 170.02 61.87 170.74
  L 61.86 182.55
  A 0.45 0.44 90.0 0 0 62.30 183.00
  L 154.01 182.99
  Q 155.01 182.99 155.01 181.99
  L 155.01 168.47
  A 0.30 0.29 90.0 0 0 154.72 168.17
  L 84.53 168.14"
/>
<path fill="#3b9adb" d="
  M 104.26 241.48
  L 17.42 218.09
  A 0.32 0.32 0.0 0 1 17.18 217.80
  L 0.50 0.85
  A 0.32 0.32 0.0 0 1 0.82 0.51
  L 207.84 0.51
  A 0.32 0.32 0.0 0 1 208.16 0.85
  L 191.47 214.47
  A 0.32 0.32 0.0 0 1 191.24 214.75
  L 104.44 241.47
  A 0.32 0.32 0.0 0 1 104.26 241.48
  Z
  M 84.53 168.14
  A 0.36 0.36 0.0 0 1 84.27 167.54
  Q 104.59 145.54 124.44 123.70
  C 133.03 114.24 140.78 104.00 145.45 92.00
  C 150.73 78.47 149.14 61.75 138.92 51.07
  C 125.51 37.04 99.59 35.70 82.80 43.40
  C 68.03 50.17 58.97 65.46 59.26 82.17
  Q 59.27 82.64 59.74 82.64
  L 76.77 82.63
  Q 77.27 82.62 77.27 82.13
  C 77.29 70.69 81.96 60.30 93.00 55.80
  C 104.19 51.24 119.34 53.17 126.35 64.58
  C 137.63 82.93 123.51 101.50 111.44 114.94
  Q 87.69 141.37 62.35 169.48
  Q 61.87 170.02 61.87 170.74
  L 61.86 182.55
  A 0.45 0.44 90.0 0 0 62.30 183.00
  L 154.01 182.99
  Q 155.01 182.99 155.01 181.99
  L 155.01 168.47
  A 0.30 0.29 90.0 0 0 154.72 168.17
  L 84.53 168.14
  Z"
/>
<path fill="#ffffff" d="
  M 84.53 168.14
  L 154.72 168.17
  A 0.30 0.29 -90.0 0 1 155.01 168.47
  L 155.01 181.99
  Q 155.01 182.99 154.01 182.99
  L 62.30 183.00
  A 0.45 0.44 90.0 0 1 61.86 182.55
  L 61.87 170.74
  Q 61.87 170.02 62.35 169.48
  Q 87.69 141.37 111.44 114.94
  C 123.51 101.50 137.63 82.93 126.35 64.58
  C 119.34 53.17 104.19 51.24 93.00 55.80
  C 81.96 60.30 77.29 70.69 77.27 82.13
  Q 77.27 82.62 76.77 82.63
  L 59.74 82.64
  Q 59.27 82.64 59.26 82.17
  C 58.97 65.46 68.03 50.17 82.80 43.40
  C 99.59 35.70 125.51 37.04 138.92 51.07
  C 149.14 61.75 150.73 78.47 145.45 92.00
  C 140.78 104.00 133.03 114.24 124.44 123.70
  Q 104.59 145.54 84.27 167.54
  A 0.36 0.36 0.0 0 0 84.53 168.14
  Z"
/>
</svg>
