<?xml version="1.0" encoding="UTF-8" standalone="no"?>
<!DOCTYPE svg PUBLIC "-//W3C//DTD SVG 1.1//EN" "http://www.w3.org/Graphics/SVG/1.1/DTD/svg11.dtd">
<svg xmlns="http://www.w3.org/2000/svg" version="1.1" viewBox="0.00 0.00 240.00 240.00">
<g stroke-width="2.00" fill="none" stroke-linecap="butt">
<path stroke="#9ab1b8" vector-effect="non-scaling-stroke" d="
  M 84.75 124.35
  C 86.95 123.14 89.97 122.17 92.50 120.98
  Q 95.66 119.50 102.50 119.57
  Q 120.50 119.77 138.50 119.81
  C 144.85 119.82 152.07 116.20 156.84 112.35
  C 161.94 108.24 168.22 98.92 168.65 92.46
  Q 169.67 77.02 169.37 56.00
  Q 169.18 42.22 158.94 32.08
  Q 150.10 23.32 138.25 22.98
  Q 130.97 22.77 106.53 22.98
  C 96.19 23.07 89.32 24.42 82.04 30.78
  Q 71.45 40.04 70.96 54.25
  Q 70.72 61.21 70.63 68.04
  A 0.61 0.61 0.0 0 0 71.23 68.66
  L 118.85 68.72
  A 0.42 0.42 0.0 0 1 119.27 69.15
  L 119.18 73.23
  Q 119.17 73.61 118.78 73.62
  Q 82.03 73.79 54.48 73.73
  Q 46.50 73.72 42.17 75.04
  Q 28.55 79.19 22.33 93.06
  Q 19.55 99.24 19.54 102.29
  Q 19.50 117.81 19.51 133.33
  Q 19.52 143.52 21.02 148.01
  C 24.63 158.83 34.13 167.42 45.25 169.80
  C 50.66 170.95 58.20 170.49 64.43 170.47
  A 0.54 0.54 0.0 0 0 64.97 169.92
  C 64.85 163.38 64.62 156.01 65.79 150.09
  Q 69.19 132.92 84.75 124.35"
/>
<path stroke="#ffe188" vector-effect="non-scaling-stroke" d="
  M 74.63 205.23
  C 75.58 206.45 75.86 207.99 77.05 209.19
  Q 79.89 212.05 82.69 215.00
  C 85.01 217.44 87.75 218.59 90.63 220.24
  Q 91.06 220.48 91.55 220.48
  Q 118.62 220.49 145.68 220.50
  Q 148.42 220.50 150.58 219.42
  Q 164.69 212.36 168.08 197.23
  C 169.33 191.66 168.82 184.40 168.96 178.12
  A 0.78 0.77 -89.3 0 0 168.19 177.32
  L 121.76 177.20
  Q 120.67 177.20 120.64 176.11
  L 120.58 173.25
  Q 120.55 172.01 121.79 172.04
  C 144.72 172.64 167.80 172.05 190.74 171.94
  Q 197.67 171.91 203.78 168.05
  C 211.23 163.34 217.09 156.53 219.06 147.75
  C 221.29 137.87 220.47 126.45 220.33 111.01
  C 220.25 101.99 219.39 95.66 214.46 89.00
  Q 209.93 82.87 203.89 79.24
  C 195.41 74.15 185.20 75.53 175.68 75.50
  A 0.65 0.64 0.0 0 0 175.03 76.14
  C 175.03 88.99 175.80 99.40 167.50 110.26
  Q 159.30 120.99 147.00 124.40
  Q 141.85 125.83 130.36 125.81
  Q 120.04 125.79 109.72 125.82
  Q 98.08 125.84 93.16 127.41
  C 82.13 130.92 73.35 140.93 71.34 152.43
  Q 70.89 155.03 70.76 167.61
  Q 70.64 179.12 70.79 190.64
  C 70.85 195.04 71.82 201.67 74.63 205.23"
/>
<path stroke="#9ab6cc" vector-effect="non-scaling-stroke" d="
  M 101.44 46.71
  A 9.33 9.33 0.0 0 0 92.11 37.38
  A 9.33 9.33 0.0 0 0 82.78 46.71
  A 9.33 9.33 0.0 0 0 92.11 56.04
  A 9.33 9.33 0.0 0 0 101.44 46.71"
/>
<path stroke="#ffe188" vector-effect="non-scaling-stroke" d="
  M 139.21 194.77
  Q 136.05 200.26 140.18 204.50"
/>
<path stroke="#ffe69d" vector-effect="non-scaling-stroke" d="
  M 140.18 204.50
  C 144.71 209.58 151.75 209.56 155.59 204.00
  C 159.14 198.87 155.76 190.73 149.52 189.55
  C 145.16 188.73 141.36 191.08 139.21 194.77"
/>
<path stroke="#fffaeb" vector-effect="non-scaling-stroke" d="
  M 140.18 204.50
  C 140.01 202.81 139.00 201.65 138.87 200.10
  Q 138.66 197.41 139.21 194.77"
/>
</g>
<path fill="#fff5d6" d="
  M 114.17 0.00
  L 125.22 0.00
  C 188.00 3.62 235.60 51.29 240.00 113.91
  L 240.00 124.98
  C 236.53 187.78 188.94 235.45 126.34 240.00
  L 114.78 240.00
  Q 77.14 237.92 48.57 216.42
  Q 4.04 182.91 0.00 125.62
  L 0.00 114.76
  C 3.95 52.01 51.29 3.97 114.17 0.00
  Z
  M 84.75 124.35
  C 86.95 123.14 89.97 122.17 92.50 120.98
  Q 95.66 119.50 102.50 119.57
  Q 120.50 119.77 138.50 119.81
  C 144.85 119.82 152.07 116.20 156.84 112.35
  C 161.94 108.24 168.22 98.92 168.65 92.46
  Q 169.67 77.02 169.37 56.00
  Q 169.18 42.22 158.94 32.08
  Q 150.10 23.32 138.25 22.98
  Q 130.97 22.77 106.53 22.98
  C 96.19 23.07 89.32 24.42 82.04 30.78
  Q 71.45 40.04 70.96 54.25
  Q 70.72 61.21 70.63 68.04
  A 0.61 0.61 0.0 0 0 71.23 68.66
  L 118.85 68.72
  A 0.42 0.42 0.0 0 1 119.27 69.15
  L 119.18 73.23
  Q 119.17 73.61 118.78 73.62
  Q 82.03 73.79 54.48 73.73
  Q 46.50 73.72 42.17 75.04
  Q 28.55 79.19 22.33 93.06
  Q 19.55 99.24 19.54 102.29
  Q 19.50 117.81 19.51 133.33
  Q 19.52 143.52 21.02 148.01
  C 24.63 158.83 34.13 167.42 45.25 169.80
  C 50.66 170.95 58.20 170.49 64.43 170.47
  A 0.54 0.54 0.0 0 0 64.97 169.92
  C 64.85 163.38 64.62 156.01 65.79 150.09
  Q 69.19 132.92 84.75 124.35
  Z
  M 74.63 205.23
  C 75.58 206.45 75.86 207.99 77.05 209.19
  Q 79.89 212.05 82.69 215.00
  C 85.01 217.44 87.75 218.59 90.63 220.24
  Q 91.06 220.48 91.55 220.48
  Q 118.62 220.49 145.68 220.50
  Q 148.42 220.50 150.58 219.42
  Q 164.69 212.36 168.08 197.23
  C 169.33 191.66 168.82 184.40 168.96 178.12
  A 0.78 0.77 -89.3 0 0 168.19 177.32
  L 121.76 177.20
  Q 120.67 177.20 120.64 176.11
  L 120.58 173.25
  Q 120.55 172.01 121.79 172.04
  C 144.72 172.64 167.80 172.05 190.74 171.94
  Q 197.67 171.91 203.78 168.05
  C 211.23 163.34 217.09 156.53 219.06 147.75
  C 221.29 137.87 220.47 126.45 220.33 111.01
  C 220.25 101.99 219.39 95.66 214.46 89.00
  Q 209.93 82.87 203.89 79.24
  C 195.41 74.15 185.20 75.53 175.68 75.50
  A 0.65 0.64 0.0 0 0 175.03 76.14
  C 175.03 88.99 175.80 99.40 167.50 110.26
  Q 159.30 120.99 147.00 124.40
  Q 141.85 125.83 130.36 125.81
  Q 120.04 125.79 109.72 125.82
  Q 98.08 125.84 93.16 127.41
  C 82.13 130.92 73.35 140.93 71.34 152.43
  Q 70.89 155.03 70.76 167.61
  Q 70.64 179.12 70.79 190.64
  C 70.85 195.04 71.82 201.67 74.63 205.23
  Z"
/>
<path fill="#346c99" d="
  M 84.75 124.35
  Q 69.19 132.92 65.79 150.09
  C 64.62 156.01 64.85 163.38 64.97 169.92
  A 0.54 0.54 0.0 0 1 64.43 170.47
  C 58.20 170.49 50.66 170.95 45.25 169.80
  C 34.13 167.42 24.63 158.83 21.02 148.01
  Q 19.52 143.52 19.51 133.33
  Q 19.50 117.81 19.54 102.29
  Q 19.55 99.24 22.33 93.06
  Q 28.55 79.19 42.17 75.04
  Q 46.50 73.72 54.48 73.73
  Q 82.03 73.79 118.78 73.62
  Q 119.17 73.61 119.18 73.23
  L 119.27 69.15
  A 0.42 0.42 0.0 0 0 118.85 68.72
  L 71.23 68.66
  A 0.61 0.61 0.0 0 1 70.63 68.04
  Q 70.72 61.21 70.96 54.25
  Q 71.45 40.04 82.04 30.78
  C 89.32 24.42 96.19 23.07 106.53 22.98
  Q 130.97 22.77 138.25 22.98
  Q 150.10 23.32 158.94 32.08
  Q 169.18 42.22 169.37 56.00
  Q 169.67 77.02 168.65 92.46
  C 168.22 98.92 161.94 108.24 156.84 112.35
  C 152.07 116.20 144.85 119.82 138.50 119.81
  Q 120.50 119.77 102.50 119.57
  Q 95.66 119.50 92.50 120.98
  C 89.97 122.17 86.95 123.14 84.75 124.35
  Z
  M 101.44 46.71
  A 9.33 9.33 0.0 0 0 92.11 37.38
  A 9.33 9.33 0.0 0 0 82.78 46.71
  A 9.33 9.33 0.0 0 0 92.11 56.04
  A 9.33 9.33 0.0 0 0 101.44 46.71
  Z"
/>
<circle fill="#ffffff" cx="92.11" cy="46.71" r="9.33"/>
<path fill="#ffcd3a" d="
  M 74.63 205.23
  C 71.82 201.67 70.85 195.04 70.79 190.64
  Q 70.64 179.12 70.76 167.61
  Q 70.89 155.03 71.34 152.43
  C 73.35 140.93 82.13 130.92 93.16 127.41
  Q 98.08 125.84 109.72 125.82
  Q 120.04 125.79 130.36 125.81
  Q 141.85 125.83 147.00 124.40
  Q 159.30 120.99 167.50 110.26
  C 175.80 99.40 175.03 88.99 175.03 76.14
  A 0.65 0.64 0.0 0 1 175.68 75.50
  C 185.20 75.53 195.41 74.15 203.89 79.24
  Q 209.93 82.87 214.46 89.00
  C 219.39 95.66 220.25 101.99 220.33 111.01
  C 220.47 126.45 221.29 137.87 219.06 147.75
  C 217.09 156.53 211.23 163.34 203.78 168.05
  Q 197.67 171.91 190.74 171.94
  C 167.80 172.05 144.72 172.64 121.79 172.04
  Q 120.55 172.01 120.58 173.25
  L 120.64 176.11
  Q 120.67 177.20 121.76 177.20
  L 168.19 177.32
  A 0.78 0.77 -89.3 0 1 168.96 178.12
  C 168.82 184.40 169.33 191.66 168.08 197.23
  Q 164.69 212.36 150.58 219.42
  Q 148.42 220.50 145.68 220.50
  Q 118.62 220.49 91.55 220.48
  Q 91.06 220.48 90.63 220.24
  C 87.75 218.59 85.01 217.44 82.69 215.00
  Q 79.89 212.05 77.05 209.19
  C 75.86 207.99 75.58 206.45 74.63 205.23
  Z
  M 139.21 194.77
  Q 136.05 200.26 140.18 204.50
  C 144.71 209.58 151.75 209.56 155.59 204.00
  C 159.14 198.87 155.76 190.73 149.52 189.55
  C 145.16 188.73 141.36 191.08 139.21 194.77
  Z"
/>
<path fill="#ffffff" d="
  M 140.18 204.50
  C 140.01 202.81 139.00 201.65 138.87 200.10
  Q 138.66 197.41 139.21 194.77
  C 141.36 191.08 145.16 188.73 149.52 189.55
  C 155.76 190.73 159.14 198.87 155.59 204.00
  C 151.75 209.56 144.71 209.58 140.18 204.50
  Z"
/>
<path fill="#fff5d6" d="
  M 139.21 194.77
  Q 138.66 197.41 138.87 200.10
  C 139.00 201.65 140.01 202.81 140.18 204.50
  Q 136.05 200.26 139.21 194.77
  Z"
/>
</svg>
