<?xml version="1.0" encoding="UTF-8" standalone="no"?>
<!DOCTYPE svg PUBLIC "-//W3C//DTD SVG 1.1//EN" "http://www.w3.org/Graphics/SVG/1.1/DTD/svg11.dtd">
<svg xmlns="http://www.w3.org/2000/svg" version="1.1" viewBox="0.00 0.00 240.00 240.00">
<g stroke-width="2.00" fill="none" stroke-linecap="butt">
<path stroke="#83acda" vector-effect="non-scaling-stroke" d="
  M 198.1177 57.3645
  A 15.24 15.24 0.0 0 0 182.9043 42.0979
  L 59.3645 41.8823
  A 15.24 15.24 0.0 0 0 44.0979 57.0957
  L 43.8823 180.6355
  A 15.24 15.24 0.0 0 0 59.0957 195.9021
  L 182.6355 196.1177
  A 15.24 15.24 0.0 0 0 197.9021 180.9043
  L 198.1177 57.3645"
/>
<path stroke="#98bce3" vector-effect="non-scaling-stroke" d="
  M 180.79 150.72
  C 175.51 145.41 168.07 142.92 161.29 139.62
  C 157.28 137.66 153.40 134.19 155.70 129.89
  C 159.96 121.92 176.05 126.35 181.88 129.82
  Q 182.42 130.14 182.42 129.52
  L 182.43 116.71
  Q 182.43 116.18 181.92 116.02
  Q 166.47 111.08 152.75 115.47
  C 134.90 121.18 134.55 143.40 150.95 151.27
  C 155.14 153.29 166.16 157.18 168.29 160.96
  Q 171.42 166.51 166.68 169.44
  C 158.96 174.21 146.44 170.14 139.76 165.03
  Q 139.26 164.65 139.26 165.28
  L 139.26 179.21
  Q 139.26 179.80 139.81 180.01
  C 151.57 184.39 170.69 185.74 180.11 176.70
  C 186.30 170.75 187.76 157.73 180.79 150.72"
/>
<path stroke="#98bce3" vector-effect="non-scaling-stroke" d="
  M 113.97 127.74
  A 0.34 0.34 0.0 0 1 114.31 127.40
  L 132.98 127.42
  A 0.34 0.34 0.0 0 0 133.32 127.08
  L 133.32 115.47
  A 0.34 0.34 0.0 0 0 132.98 115.13
  L 79.88 115.18
  A 0.34 0.34 0.0 0 0 79.54 115.52
  L 79.52 126.96
  A 0.34 0.34 0.0 0 0 79.86 127.30
  L 98.41 127.41
  A 0.34 0.34 0.0 0 1 98.75 127.75
  L 98.75 182.11
  A 0.34 0.34 0.0 0 0 99.09 182.45
  L 113.57 182.43
  A 0.34 0.34 0.0 0 0 113.91 182.09
  L 113.97 127.74"
/>
</g>
<path fill="#d5e0ed" d="
  M 113.89 0.00
  L 125.24 0.00
  C 188.04 3.63 235.55 51.27 240.00 113.89
  L 240.00 124.74
  Q 237.88 165.73 212.93 195.94
  Q 179.20 236.79 124.64 240.00
  L 114.75 240.00
  C 51.91 236.07 3.85 188.57 0.00 125.59
  L 0.00 114.71
  Q 4.29 54.27 52.79 20.52
  C 70.76 8.02 91.45 2.12 113.89 0.00
  Z
  M 198.1177 57.3645
  A 15.24 15.24 0.0 0 0 182.9043 42.0979
  L 59.3645 41.8823
  A 15.24 15.24 0.0 0 0 44.0979 57.0957
  L 43.8823 180.6355
  A 15.24 15.24 0.0 0 0 59.0957 195.9021
  L 182.6355 196.1177
  A 15.24 15.24 0.0 0 0 197.9021 180.9043
  L 198.1177 57.3645
  Z"
/>
<path fill="#3178c6" d="
  M 197.9021 180.9043
  A 15.24 15.24 0.0 0 1 182.6355 196.1177
  L 59.0957 195.9021
  A 15.24 15.24 0.0 0 1 43.8823 180.6355
  L 44.0979 57.0957
  A 15.24 15.24 0.0 0 1 59.3645 41.8823
  L 182.9043 42.0979
  A 15.24 15.24 0.0 0 1 198.1177 57.3645
  L 197.9021 180.9043
  Z
  M 180.79 150.72
  C 175.51 145.41 168.07 142.92 161.29 139.62
  C 157.28 137.66 153.40 134.19 155.70 129.89
  C 159.96 121.92 176.05 126.35 181.88 129.82
  Q 182.42 130.14 182.42 129.52
  L 182.43 116.71
  Q 182.43 116.18 181.92 116.02
  Q 166.47 111.08 152.75 115.47
  C 134.90 121.18 134.55 143.40 150.95 151.27
  C 155.14 153.29 166.16 157.18 168.29 160.96
  Q 171.42 166.51 166.68 169.44
  C 158.96 174.21 146.44 170.14 139.76 165.03
  Q 139.26 164.65 139.26 165.28
  L 139.26 179.21
  Q 139.26 179.80 139.81 180.01
  C 151.57 184.39 170.69 185.74 180.11 176.70
  C 186.30 170.75 187.76 157.73 180.79 150.72
  Z
  M 113.97 127.74
  A 0.34 0.34 0.0 0 1 114.31 127.40
  L 132.98 127.42
  A 0.34 0.34 0.0 0 0 133.32 127.08
  L 133.32 115.47
  A 0.34 0.34 0.0 0 0 132.98 115.13
  L 79.88 115.18
  A 0.34 0.34 0.0 0 0 79.54 115.52
  L 79.52 126.96
  A 0.34 0.34 0.0 0 0 79.86 127.30
  L 98.41 127.41
  A 0.34 0.34 0.0 0 1 98.75 127.75
  L 98.75 182.11
  A 0.34 0.34 0.0 0 0 99.09 182.45
  L 113.57 182.43
  A 0.34 0.34 0.0 0 0 113.91 182.09
  L 113.97 127.74
  Z"
/>
<path fill="#ffffff" d="
  M 161.29 139.62
  C 168.07 142.92 175.51 145.41 180.79 150.72
  C 187.76 157.73 186.30 170.75 180.11 176.70
  C 170.69 185.74 151.57 184.39 139.81 180.01
  Q 139.26 179.80 139.26 179.21
  L 139.26 165.28
  Q 139.26 164.65 139.76 165.03
  C 146.44 170.14 158.96 174.21 166.68 169.44
  Q 171.42 166.51 168.29 160.96
  C 166.16 157.18 155.14 153.29 150.95 151.27
  C 134.55 143.40 134.90 121.18 152.75 115.47
  Q 166.47 111.08 181.92 116.02
  Q 182.43 116.18 182.43 116.71
  L 182.42 129.52
  Q 182.42 130.14 181.88 129.82
  C 176.05 126.35 159.96 121.92 155.70 129.89
  C 153.40 134.19 157.28 137.66 161.29 139.62
  Z"
/>
<path fill="#ffffff" d="
  M 113.97 127.74
  L 113.91 182.09
  A 0.34 0.34 0.0 0 1 113.57 182.43
  L 99.09 182.45
  A 0.34 0.34 0.0 0 1 98.75 182.11
  L 98.75 127.75
  A 0.34 0.34 0.0 0 0 98.41 127.41
  L 79.86 127.30
  A 0.34 0.34 0.0 0 1 79.52 126.96
  L 79.54 115.52
  A 0.34 0.34 0.0 0 1 79.88 115.18
  L 132.98 115.13
  A 0.34 0.34 0.0 0 1 133.32 115.47
  L 133.32 127.08
  A 0.34 0.34 0.0 0 1 132.98 127.42
  L 114.31 127.40
  A 0.34 0.34 0.0 0 0 113.97 127.74
  Z"
/>
</svg>
